<?xml version="1.0" standalone="no"?>
<!DOCTYPE svg PUBLIC "-//W3C//DTD SVG 1.1//EN" "http://www.w3.org/Graphics/SVG/1.1/DTD/svg11.dtd" >
<svg>
<metadata>
Created by FontForge 20090914 at Sun Apr  3 22:46:30 2016
 By www-data
Copyright (c) 2014 by Shrenik Ganatra. All rights reserved.
</metadata>
<defs>
<font id="ADAM.CGPRO" horiz-adv-x="695" >
  <font-face 
    font-family="ADAM.CG PRO"
    font-weight="400"
    font-stretch="normal"
    units-per-em="1000"
    panose-1="0 0 0 0 0 0 0 0 0 0"
    ascent="750"
    descent="-250"
    x-height="742"
    cap-height="742"
    bbox="1 -218.001 1155 975"
    underline-thickness="50"
    underline-position="-100"
    unicode-range="U+000D-U+2212"
  />
<missing-glyph horiz-adv-x="300" 
 />
    <glyph glyph-name=".notdef" horiz-adv-x="300" 
 />
    <glyph glyph-name="NULL" horiz-adv-x="0" 
 />
    <glyph glyph-name="NULL" horiz-adv-x="0" 
 />
    <glyph glyph-name="CR" unicode="&#xd;" horiz-adv-x="300" 
 />
    <glyph glyph-name="space" unicode=" " horiz-adv-x="300" 
 />
    <glyph glyph-name="exclam" unicode="!" horiz-adv-x="277" 
d="M139 133c18 0 33.5 -6.5 46.5 -19.5s19.5 -28.833 19.5 -47.5c0 -18 -6.5 -33.5 -19.5 -46.5s-28.5 -19.5 -46.5 -19.5c-18.667 0 -34.5 6.5 -47.5 19.5s-19.5 28.5 -19.5 46.5c0 18.667 6.5 34.5 19.5 47.5s28.833 19.5 47.5 19.5zM139 194
c-20.667 0 -39 -4.33301 -55 -13l-24 601h157l-24 -600c-14.667 8 -32.667 12 -54 12z" />
    <glyph glyph-name="quotedbl" unicode="&#x22;" horiz-adv-x="373" 
d="M142 556h-70l12 186h104zM272 556h-70l12 186h104z" />
    <glyph glyph-name="numbersign" unicode="#" horiz-adv-x="863" 
d="M813 447h-146l-40 -152h117v-116h-148l-48 -179h-121l48 179h-158l-48 -179h-121l48 179h-118v116h149l41 152h-121v116h152l57 213h120l-57 -213h159l57 213h120l-57 -213h115v-116zM506 295l41 152h-159l-40 -152h158z" />
    <glyph glyph-name="dollar" unicode="$" horiz-adv-x="535" 
d="M482 247c11.333 -36.667 11.998 -72.668 1.99805 -108.001c-10.667 -37.333 -31.667 -69.666 -63 -96.999s-67.666 -45.333 -108.999 -54v-68h-70v64c-25.333 2 -49 7.33301 -71 16c-50.667 19.333 -93.667 52.333 -129 99l96 75c23.333 -29.333 49 -49.333 77 -60
c6 -2.66699 15 -5.33398 27 -8.00098v239c-2 2.66699 -4 5 -6 7l-94 90c-29.333 27.333 -49.666 58.333 -60.999 93c-10.667 34 -11 66.667 -1 98c9.33301 33.333 28.333 62.333 57 87c26 22 57 36.667 93 44c5.33301 1.33301 9.33301 2 12 2v66h70v-68
c10.667 -2 21.667 -5 33 -9c40.667 -15.333 75.667 -41.666 105 -78.999l-95 -76c-12 16.667 -26.333 29 -43 37v-189l43 -43l60 -56c32.667 -32 55 -66 67 -102zM225.998 529.999l16 -16v128c-24.667 -8.66699 -40 -23 -46 -43c-6 -20.667 4 -43.667 30 -69z
M366.998 171.999c8 28.667 -3.66504 58 -34.998 88c-4.66699 4 -11.334 10.333 -20.001 19v-164c29.333 13.333 47.666 32.333 54.999 57z" />
    <glyph glyph-name="percent" unicode="%" horiz-adv-x="702" 
d="M196 0h-96l405 742h96zM177 392c-20 0 -38.667 5.33301 -56 16c-14.667 9.33301 -27 23.333 -37 42c-15.333 29.333 -23 68.333 -23 117s7.66699 87.667 23 117c8.66699 17.333 21 31.333 37 42c15.333 10.667 34 16 56 16c21.333 0 40.333 -5.33301 57 -16
c15.333 -11.333 27.333 -25.333 36 -42c15.333 -28 23 -67 23 -117c0 -48.667 -7.66699 -87.667 -23 -117c-8.66699 -17.333 -21 -31.333 -37 -42c-17.333 -10.667 -36 -16 -56 -16zM177 687c-20 0 -34.667 -9.33496 -44 -28.002c-11.333 -21.333 -17 -52 -17 -92
c0 -39.333 5.66699 -69.666 17 -90.999c10 -19.333 24.667 -29 44 -29s34.333 9.66699 45 29c10.667 20.667 16 51 16 91c0 40.667 -5.33301 71.334 -16 92.001c-10 18.667 -25 28 -45 28zM525 349.998c22 0 40.667 -5.33301 56 -16c14.667 -9.33301 27 -23.333 37 -42
c15.333 -29.333 23 -68.333 23 -117s-7.66699 -87.667 -23 -117c-8.66699 -17.333 -21 -31.333 -37 -42c-15.333 -10.667 -34 -16 -56 -16c-21.333 0 -40.333 5.33301 -57 16c-14.667 10 -26.667 24 -36 42c-15.333 28 -23 67 -23 117s7.66699 89 23 117
c8.66699 16.667 20.667 30.667 36 42c16.667 10.667 35.667 16 57 16zM525 54.998c19.333 0 34 9.33496 44 28.002c11.333 21.333 17 52 17 92s-5.66699 70.667 -17 92c-10 18.667 -24.667 28 -44 28s-34.333 -9.33301 -45 -28c-10.667 -20.667 -16 -51.334 -16 -92.001
s5.33301 -71.334 16 -92.001c10.667 -18.667 25.667 -28 45 -28z" />
    <glyph glyph-name="ampersand" unicode="&#x26;" horiz-adv-x="591" 
d="M421 243l111 0.00488281v-294h-111v71c-32 -12.667 -67.667 -19 -107 -19c-72.667 0 -134.334 21.333 -185.001 64c-24.667 20 -44.334 44.667 -59.001 74c-15.333 29.333 -23 60.333 -23 93c0 55.333 19.333 104.333 58 147c9.33301 9.33301 19 18 29 26
c-14.667 14 -26.667 29 -36 45c-16.667 27.333 -25 58.666 -25 93.999c0 28.667 6.33301 55.667 19 81c12 24 29 45 51 63c43.333 36 95.333 54 156 54c38 0 74 -7.66699 108 -23c38.667 -18.667 68.334 -44.334 89.001 -77.001l-92 -60
c-10.667 16 -25.334 28.333 -44.001 37c-19.333 8.66699 -39.666 13 -60.999 13c-34 0 -62.333 -9.66699 -85 -29c-20.667 -16.667 -31 -36.334 -31 -59.001c0 -29.333 15.333 -53.333 46 -72c43.333 -26.667 112.333 -40 207 -40v-110c-73.333 0 -135.333 7.33301 -186 22
c-27.333 -8.66699 -49.666 -23.334 -66.999 -44.001s-26 -43.334 -26 -68.001c0 -30.667 14 -58 42 -82c32 -26 70.333 -39 115 -39c41.333 0 77 11.333 107 34v98z" />
    <glyph glyph-name="quotesingle" unicode="'" horiz-adv-x="215" 
d="M136 556h-70l12 186h104z" />
    <glyph glyph-name="parenleft" unicode="(" horiz-adv-x="350" 
d="M222 -133c-59.333 60.667 -105.333 134 -138 220c-34 88 -51 182.333 -51 283s17 195 51 283c32.667 86 78.667 159.333 138 220l82 -82c-47.333 -48 -84.666 -107.667 -111.999 -179c-28.667 -76 -43 -156.667 -43 -242s14.333 -166 43 -242
c27.333 -71.333 64.666 -131 111.999 -179z" />
    <glyph glyph-name="parenright" unicode=")" horiz-adv-x="350" 
d="M129 -133l-82.999 81.998c46.667 46.667 84 106.334 112 179.001c28.667 76 43 156.667 43 242s-14.333 166 -43 242c-28 72.667 -65.333 132.334 -112 179.001l82 82c59.333 -60 105.666 -133.333 138.999 -220c33.333 -88.667 50 -183 50 -283
s-16.667 -194.333 -50 -283c-33.333 -86 -79.333 -159.333 -138 -220z" />
    <glyph glyph-name="asterisk" unicode="*" horiz-adv-x="295" 
d="M254 637l-61 -4l43 -51l-65 -37l-22 62l-22 -62l-65 37l42 50l-68 5l20 73l67 -32l-12 64h75l-11 -60l59 28z" />
    <glyph glyph-name="plus" unicode="+" horiz-adv-x="618" 
d="M540 421v-100h-181v-181h-100v181h-181v100h181v181h100v-181h181z" />
    <glyph glyph-name="comma" unicode="," horiz-adv-x="252" 
d="M194 70c0 -8.66699 -1.66602 -17.3301 -4.99902 -25.9971l-53 -151h-40l24 107c-18.667 1.33301 -34.334 8.66602 -47.001 21.999s-19 29.333 -19 48c0 19.333 6.83301 35.666 20.5 48.999s30.167 20 49.5 20s35.833 -6.83301 49.5 -20.5s20.5 -29.834 20.5 -48.501z" />
    <glyph glyph-name="hyphen" unicode="-" horiz-adv-x="467" 
d="M390 321h-312v100h312v-100z" />
    <glyph glyph-name="period" unicode="." horiz-adv-x="252" 
d="M194 70c0 -19.333 -6.83301 -35.833 -20.5 -49.5s-30.167 -20.5 -49.5 -20.5s-35.833 6.83301 -49.5 20.5s-20.5 30.167 -20.5 49.5s6.83301 35.833 20.5 49.5s30.167 20.5 49.5 20.5c18.667 0 35 -7 49 -21s21 -30.333 21 -49z" />
    <glyph glyph-name="slash" unicode="/" horiz-adv-x="491" 
d="M194 -97h-116l219 928h116z" />
    <glyph glyph-name="zero" unicode="0" horiz-adv-x="682" 
d="M343 0c-47.333 0 -90.667 11.668 -130 35.001c-34.667 20 -65 50 -91 90c-44.667 68.667 -67 151 -67 247c0 95.333 22 177.666 66 246.999c26 38 56 67.333 90 88c38 23.333 81.333 35 130 35c49.333 0 92.333 -11.667 129 -35c36 -20.667 66 -50.667 90 -90
c44.667 -68.667 67 -151 67 -247c0 -94.667 -22 -176.667 -66 -246c-24 -38 -53.667 -67.667 -89 -89c-39.333 -23.333 -82.333 -35 -129 -35zM340.999 626.001c-51.333 0 -91.998 -23.666 -121.998 -70.999c-32 -49.333 -48 -110.333 -48 -183s16 -134 48 -184
c31.333 -48 72.666 -72 123.999 -72c50 0 90 23.667 120 71c31.333 48 47 109 47 183c0 73.333 -15.667 134.666 -47 183.999c-30.667 48 -71.334 72 -122.001 72z" />
    <glyph glyph-name="one" unicode="1" horiz-adv-x="355" 
d="M278 0h-116v511l-92 -69l-69 93l277 207v-742z" />
    <glyph glyph-name="two" unicode="2" horiz-adv-x="611" 
d="M268 118h283.998v-118h-521l72 94l275 365c22.667 30.667 36 58.667 40 84c2 18.667 -0.666992 33.667 -8 45c-8 13.333 -20.667 23.333 -38 30s-35.666 8.66699 -54.999 6c-23.333 -4 -42.666 -13.333 -57.999 -28c-19.333 -18 -32.333 -41.333 -39 -70l-104 61
c13.333 37.333 34.666 69.333 63.999 96c34 30.667 73.667 49.667 119 57c43.333 6.66699 84.5 1.66699 123.5 -15s68.5 -42 88.5 -76c22.667 -36.667 30.334 -77.667 23.001 -123c-6 -45.333 -26.667 -91 -62 -137z" />
    <glyph glyph-name="three" unicode="3" horiz-adv-x="631" 
d="M304 0l-16.998 -0.000976562c-76 5.33301 -154 35.333 -234 90l66 95c54.667 -38.667 107 -61.167 157 -67.5s92.333 3.5 127 29.5c25.333 19.333 43.166 43.833 53.499 73.5s11.166 57.834 2.49902 84.501c-9.33301 25.333 -26 45.333 -50 60
c-30.667 18.667 -72.334 28 -125.001 28l-99 -1l128 235h-213v115h409l-133 -242c34.667 -8 66 -20 94 -36c48 -30 80.667 -70.667 98 -122c17.333 -50 17 -102.333 -1 -157c-19.333 -54 -50.666 -97.333 -93.999 -130c-48.667 -36.667 -105 -55 -169 -55z" />
    <glyph glyph-name="four" unicode="4" horiz-adv-x="609" 
d="M488 0h-116v130h-371l487 651v-535h70v-116h-70v-130zM234 246h138v185z" />
    <glyph glyph-name="five" unicode="5" horiz-adv-x="622" 
d="M297 0l-12.999 0.00195312c-76.667 3.33301 -155.667 33 -237 89l65 96c64.667 -44 123.667 -67 177 -69c42 -2 76.667 8.66699 104 32c21.333 17.333 35.666 39.666 42.999 66.999c6.66699 27.333 5 52.333 -5 75c-13.333 29.333 -37.666 51 -72.999 65
c-46.667 20 -108.334 24.667 -185.001 14l-75 -11l48 384h354v-115h-252l-17 -137c63.333 2 120.333 -7.33301 171 -28c65.333 -26.667 110 -68.334 134 -125.001c21.333 -47.333 25.5 -97 12.5 -149s-40.167 -95 -81.5 -129c-47.333 -39.333 -104 -59 -170 -59z" />
    <glyph glyph-name="six" unicode="6" horiz-adv-x="599" 
d="M494 394c39.333 -41.333 59.001 -92.667 59.001 -154c0 -62.667 -19.667 -116.667 -59 -162c-44.667 -52 -101.667 -78 -171 -78c-99.333 -0 -171.666 44.333 -216.999 133c-34 65.333 -46.333 142.5 -37 231.5s37.666 167.5 84.999 235.5c36 50.667 78 87.667 126 111
c50 25.333 104 35.333 162 30v-117c-40 6 -76.667 0.333008 -110 -17c-31.333 -15.333 -59 -40 -83 -74c-18.667 -26.667 -34 -58 -46 -94c33.333 16 71 24 113 24c75.333 0 134.666 -23 177.999 -69zM406.001 152.999c20.667 24.667 30.999 53.668 30.999 87.001
c0 31.333 -9 56 -27 74c-21.333 22 -52.666 33 -93.999 33c-47.333 0 -83 -17 -107 -51c-11.333 -16.667 -18.333 -31.667 -21 -45c4 -24.667 11 -46.334 21 -65.001c24 -46.667 62 -70 114 -70c33.333 0 61 12.333 83 37z" />
    <glyph glyph-name="seven" unicode="7" horiz-adv-x="548" 
d="M196 0h-128l288 626h-286v116h468z" />
    <glyph glyph-name="eight" unicode="8" horiz-adv-x="607" 
d="M488 385c42 -44 63.001 -96.335 63.001 -157.002c0 -61.333 -21 -113.666 -63 -156.999c-44.667 -47.333 -104.667 -71 -180 -71c-77.333 0 -139.333 23.333 -186 70c-44 42.667 -66 95.334 -66 158.001c0 62 21.667 114.667 65 158c4 4 10 9.33301 18 16
c-38.667 37.333 -58 84 -58 140c0 55.333 19.667 102 59 140c42.667 40 98 60 166 60c67.333 0 121.666 -20.667 162.999 -62c38.667 -38.667 58 -85.334 58 -140.001c0 -53.333 -19 -99.666 -57 -138.999c2 -1.33301 5 -3.83301 9 -7.5s7 -6.5 9 -8.5zM221.001 597.998
c-16 -14.667 -24.001 -33.333 -24.001 -56c0 -22 8 -41 24 -57c20.667 -19.333 49.667 -29 87 -29c34.667 0 60.334 8.33301 77.001 25s25 36.334 25 59.001c0 23.333 -7.66699 42.666 -23 57.999c-20 18.667 -47 28 -81 28c-36.667 0 -65 -9.33301 -85 -28zM405 151.999
c19.333 19.333 29.001 44.667 29.001 76c0 30.667 -10 56 -30 76c-22.667 24 -55.334 36 -98.001 36c-36.667 0 -68.167 -9.66699 -94.5 -29s-39.5 -47 -39.5 -83c0 -30.667 10.333 -55.667 31 -75c24.667 -24.667 59.667 -37 105 -37c40.667 0 73 12 97 36z" />
    <glyph glyph-name="nine" unicode="9" horiz-adv-x="600" 
d="M106 348c-39.333 41.333 -59 92.666 -59 153.999c0 62 19.667 116.333 59 163c44 51.333 101.333 77 172 77c47.333 0 89.666 -11.333 126.999 -34s67 -55.334 89 -98.001c34 -65.333 46.5 -142.666 37.5 -231.999s-37.5 -167.666 -85.5 -234.999
c-34.667 -49.333 -76.667 -86.666 -126 -111.999c-51.333 -25.333 -109.333 -35.333 -174 -30v117c46 -6 86.667 -0.333008 122 17c32.667 16 60.334 41 83.001 75c18 25.333 33.667 56.666 47 93.999c-35.333 -16.667 -73.333 -25 -114 -25c-74 0 -133.333 23 -178 69z
M194 589c-20.667 -25.333 -31 -54.332 -31 -86.999c0 -29.333 9 -54 27 -74c22 -22 53.333 -33 94 -33c47.333 0 83 17.333 107 52c9.33301 12 16.666 27 21.999 45c-5.33301 25.333 -12.666 46.666 -21.999 63.999c-24 46.667 -61.667 70 -113 70
c-34 0 -62 -12.333 -84 -37z" />
    <glyph glyph-name="colon" unicode=":" horiz-adv-x="252" 
d="M194 463c0 -19.333 -7 -35.833 -21 -49.5s-30.333 -20.5 -49 -20.5c-19.333 0 -35.833 6.83301 -49.5 20.5s-20.5 30.167 -20.5 49.5s6.83301 35.833 20.5 49.5s30.167 20.5 49.5 20.5s35.833 -6.83301 49.5 -20.5s20.5 -30.167 20.5 -49.5zM194 70
c0 -19.333 -6.83301 -35.833 -20.5 -49.5s-30.167 -20.5 -49.5 -20.5s-35.833 6.83301 -49.5 20.5s-20.5 30.167 -20.5 49.5s6.83301 35.833 20.5 49.5s30.167 20.5 49.5 20.5c18.667 0 35 -7 49 -21s21 -30.333 21 -49z" />
    <glyph glyph-name="semicolon" unicode=";" horiz-adv-x="252" 
d="M194 70c0 -8.66699 -1.66602 -17.3301 -4.99902 -25.9971l-53 -151h-40l24 107c-18.667 1.33301 -34.334 8.66602 -47.001 21.999s-19 29.333 -19 48c0 19.333 6.83301 35.666 20.5 48.999s30.167 20 49.5 20s35.833 -6.83301 49.5 -20.5s20.5 -29.834 20.5 -48.501z
M194.001 463.004c0 -19.333 -7 -35.833 -21 -49.5s-30.333 -20.5 -49 -20.5c-19.333 0 -35.833 6.83301 -49.5 20.5s-20.5 30.167 -20.5 49.5s6.83301 35.833 20.5 49.5s30.167 20.5 49.5 20.5s35.833 -6.83301 49.5 -20.5s20.5 -30.167 20.5 -49.5z" />
    <glyph glyph-name="less" unicode="&#x3c;" horiz-adv-x="516" 
d="M297 149l-219 224l219 220h141l-220 -221l220 -223h-141z" />
    <glyph glyph-name="equal" unicode="=" horiz-adv-x="568" 
d="M491 412h-413v100h413v-100zM491 230h-413v100h413v-100z" />
    <glyph glyph-name="greater" unicode="&#x3e;" horiz-adv-x="516" 
d="M218 149h-140l219 223l-219 221h140l220 -220z" />
    <glyph glyph-name="question" unicode="?" horiz-adv-x="589" 
d="M267 134c18.667 0 34.5 -6.5 47.5 -19.5s19.5 -28.833 19.5 -47.5s-6.5 -34.5 -19.5 -47.5s-28.833 -19.5 -47.5 -19.5s-34.5 6.5 -47.5 19.5s-19.5 28.833 -19.5 47.5s6.5 34.5 19.5 47.5s28.833 19.5 47.5 19.5zM505 692c30 -40.667 40 -86.998 30 -138.998
c-11.333 -54 -42.666 -109.667 -93.999 -167l-18 -18c-26 -26 -46 -51.667 -60 -77c-19.333 -35.333 -30 -72 -32 -110c-18.667 9.33301 -39.667 14 -63 14c-24 0 -44 -4.66699 -60 -14c3.33301 56.667 19 110 47 160c18 32.667 43.333 66 76 100
c4 3.33301 8.66699 7.66602 14 12.999c33.333 37.333 54.666 70.666 63.999 99.999c11.333 31.333 9 57.333 -7 78c-12 16.667 -31.667 28.667 -59 36c-14.667 3.33301 -28.334 5 -41.001 5c-16 0 -30.333 -2 -43 -6c-24.667 -6 -44 -17 -58 -33
c-18 -20 -27.333 -45 -28 -75h-123c2 54 18.667 99.667 50 137c30.667 36.667 71.334 61.667 122.001 75c27.333 7.33301 54 11 80 11c42 0 81.167 -8 117.5 -24s64.833 -38 85.5 -66z" />
    <glyph glyph-name="at" unicode="@" horiz-adv-x="645" 
d="M545 504c38.667 -46.667 53.335 -105.331 44.002 -175.998l-19 -132c-6 -43.333 -18.667 -79.333 -38 -108c-17.333 -26 -38.333 -44 -63 -54c-33.333 -14 -62 -11.667 -86 7c-16.667 12 -24.334 28.667 -23.001 50h-74c-32.667 0 -58.667 10.333 -78 31
c-18.667 21.333 -25.334 48.666 -20.001 81.999c4 29.333 16 54 36 74c22.667 21.333 50.667 32 84 32h83l3 27c2.66699 19.333 -3.66602 32.333 -18.999 39c-13.333 6 -29.833 6.83301 -49.5 2.5s-34.5 -12.833 -44.5 -25.5l-53 42c20 24 47.333 40.333 82 49
c34 7.33301 64.667 5 92 -7c22 -9.33301 38.167 -23.666 48.5 -42.999s13.833 -41.333 10.5 -66l-33 -235c6.66699 0 12.667 1.33301 18 4c30.667 13.333 50 49.333 58 108l18 132c4 26 3.33301 50.333 -2 73c-4.66699 18.667 -13.334 35.667 -26.001 51
c-24 28.667 -57.667 46 -101 52c-27.333 3.33301 -54.333 2 -81 -4c-28 -6 -53.667 -16.667 -77 -32c-53.333 -35.333 -84.333 -85 -93 -149l-19 -132c-7.33301 -51.333 2.66699 -92.666 30 -123.999c18 -20.667 45 -37.334 81 -50.001
c44.667 -15.333 100.334 -23 167.001 -23v-67c-75.333 0 -138.333 9 -189 27c-46.667 16 -83.334 39.333 -110.001 70c-22 25.333 -36.667 55.666 -44 90.999c-4.66699 26 -5 54.333 -1 85c12 87.333 18 131.333 18 132c6 42 20.333 80.667 43 116
c21.333 32 48 58.667 80 80c63.333 41.333 131.333 56.666 204 45.999c28.667 -4 55 -12 79 -24c24.667 -12.667 46 -29.667 64 -51zM368.001 151.003l14 98h-74c-18 0 -32 -5 -42 -15c-10 -8.66699 -16 -21.334 -18 -38.001c-2 -15.333 0 -26.666 6 -33.999
s16.667 -11 32 -11h82z" />
    <glyph glyph-name="A" unicode="A" 
d="M543 0l-63 159h-264l-63 -159h-128l323 776l322 -776h-127zM258 263h180l-90 226z" />
    <glyph glyph-name="B" unicode="B" horiz-adv-x="588" 
d="M519 318c12.667 -29.333 19.001 -62 19.001 -98c0 -36.667 -8 -70 -24 -100c-16 -28 -38.667 -51.667 -68 -71c-52 -32.667 -120 -49 -204 -49h-66h-98v742h116h48c81.333 0 142.666 -15.333 183.999 -46c22.667 -16.667 39.667 -38 51 -64c10 -22.667 15 -48.667 15 -78
c0 -50 -19.333 -95.333 -58 -136c10.667 -7.33301 22 -16.333 34 -27c22 -22 39 -46.333 51 -73zM242.001 638l-48.001 0.00195312v-225c26.667 6 52 14 76 24c38 15.333 66.667 32.666 86 51.999c20.667 20 31 41.667 31 65c0 27.333 -8 46.666 -24 57.999
c-23.333 17.333 -63.666 26 -120.999 26zM389 137.002c30 19.333 45 46.998 45 82.998c0 38.667 -13 70.334 -39 95.001c-14.667 14.667 -33.667 27 -57 37c-2.66699 -0.666992 -7.5 -2.66699 -14.5 -6s-12.5 -5.66602 -16.5 -6.99902c-30 -12.667 -67.667 -24 -113 -34
v-200h48c64.667 0 113.667 10.667 147 32z" />
    <glyph glyph-name="C" unicode="C" horiz-adv-x="677" 
d="M623 219l0.00195312 -157.998c-20.667 -13.333 -40.667 -24 -60 -32c-46.667 -19.333 -95 -29 -145 -29s-98 9.66699 -144 29c-44 18.667 -83.333 45.334 -118 80.001s-61.334 74 -80.001 118c-19.333 46 -29 94 -29 144s9.66699 98.333 29 145
c19.333 44.667 46 84 80 118c35.333 35.333 74.666 61.666 117.999 78.999c43.333 19.333 91.333 29 144 29c52 0 100.333 -9.66699 145 -29c1.33301 -0.666992 4 -1.83398 8 -3.50098s6.66699 -2.83398 8 -3.50098v-137c-46 38 -99.667 57 -161 57
c-71.333 0 -131.333 -25 -180 -75c-50 -50 -75 -110 -75 -180s25 -130 75 -180s110 -75 180 -75s130 25 180 75c8.66699 8.66699 17 18 25 28z" />
    <glyph glyph-name="D" unicode="D" horiz-adv-x="675" 
d="M535 631c60 -66 90 -152.667 90 -260s-30 -194 -90 -260c-32.667 -36.667 -72.334 -64 -119.001 -82c-48.667 -19.333 -102.667 -29 -162 -29h-137h-39v742h116h60c61.333 0 115.333 -9.66699 162 -29c46.667 -18 86.334 -45.333 119.001 -82zM449 189
c40 44 60 104.667 60 182s-20 138 -60 182c-44 48.667 -109 73 -195 73h-60v-510h60c85.333 0 150.333 24.333 195 73z" />
    <glyph glyph-name="E" unicode="E" horiz-adv-x="582" 
d="M194 638v-198h271v-105h-271v-230h329v-105h-330h-115v742h115h330v-104h-329z" />
    <glyph glyph-name="F" unicode="F" horiz-adv-x="583" 
d="M194 638v-198h271v-105h-271v-335h-116v742h115h331v-104h-330z" />
    <glyph glyph-name="G" unicode="G" horiz-adv-x="710" 
d="M651 385l0.00390625 -105.001v-201l-26 -18v0c-0.666992 0 -1.33398 -0.333008 -2.00098 -1c-1.33301 -1.33301 -2.66602 -2 -3.99902 -2c-1.33301 -1.33301 -2.33301 -2 -3 -2c-1.33301 -1.33301 -2.66602 -2 -3.99902 -2
c-1.33301 -1.33301 -2.66602 -2.33301 -3.99902 -3c0 -0.666992 -0.333008 -1 -1 -1s-1.33398 -0.333008 -2.00098 -1l-1 -1c-1.33301 0 -2 -0.333008 -2 -1c-0.666992 -0.666992 -1.5 -1 -2.5 -1s-1.83301 -0.333008 -2.5 -1l-1 -1c-1.33301 0 -2 -0.333008 -2 -1
c-1.33301 -1.33301 -3 -2 -5 -2l-2 -2h-2c-0.666992 -0.666992 -2.33398 -1.66699 -5.00098 -3c-0.666992 0 -1.83398 -0.333008 -3.50098 -1s-2.83398 -1.33398 -3.50098 -2.00098l-1 -1c-40.667 -18 -85 -28.667 -133 -32h-1h-8h-1h-9c-42 0 -81 6.33301 -117 19h-1
c-1.33301 0.666992 -3.16602 1.5 -5.49902 2.5s-4.16602 1.5 -5.49902 1.5l-15 6c-13.333 4.66699 -25.333 10.667 -36 18c-30.667 16.667 -58 37.334 -82 62.001c-34.667 34.667 -61.334 74 -80.001 118c-15.333 36.667 -24.333 72.334 -27 107.001
c-1.33301 16 -2 28.333 -2 37v19c3.33301 46 13 88 29 126c19.333 44.667 46 84 80 118c35.333 35.333 74.666 61.666 117.999 78.999c43.333 19.333 91.333 29 144 29h9h1h8h1c4 0 7 -0.333008 9 -1c44 -3.33301 85.667 -13.666 125 -30.999c0 -0.666992 0.333008 -1 1 -1
l6 -3h1v0v-137c-12.667 11.333 -29.334 22 -50.001 32c-16 7.33301 -31.333 13 -46 17c-1.33301 0 -2.33301 0.333008 -3 1h-3c-0.666992 0.666992 -2 1 -4 1c-0.666992 0 -1.33398 0.333008 -2.00098 1c-1.33301 0.666992 -3.5 1 -6.5 1s-5.16699 0.333008 -6.5 1h-2l-2 1
h-2h-2c-2 0 -3.33301 0.333008 -4 1h-3h-6c-0.666992 0 -1.66699 0.333008 -3 1h-3h-4h-2h-7c-48 0 -91.667 -12 -131 -36c-0.666992 -0.666992 -2.33398 -1.66699 -5.00098 -3c-16.667 -10.667 -31.334 -22.667 -44.001 -36c-0.666992 -0.666992 -2 -1.83398 -4 -3.50098
s-3.66699 -3.33398 -5 -5.00098s-2.66602 -3.16699 -3.99902 -4.5c0 -0.666992 -0.333008 -1 -1 -1c-3.33301 -4 -7.66602 -10 -12.999 -18l-2 -2l-6 -9c-1.33301 -1.33301 -2 -2.66602 -2 -3.99902c-14.667 -23.333 -25 -48.666 -31 -75.999
c-0.666992 -0.666992 -1 -1.33398 -1 -2.00098c-2.66699 -13.333 -4.33398 -23.333 -5.00098 -30v-11c-0.666992 -3.33301 -1 -8 -1 -14c0 -5.33301 0.333008 -9.66602 1 -12.999c1.33301 -19.333 4.33301 -38 9 -56c12 -42.667 33.667 -79.667 65 -111
c50 -50 110 -75 180 -75h7c1.33301 0 2.33301 0.333008 3 1h4h3h3h5c0 0.666992 0.666992 1 2 1h4h2c2.66699 0 6.5 0.666992 11.5 2s8.5 2 10.5 2c0.666992 0 1.33398 0.333008 2.00098 1c2 0 3.33301 0.333008 4 1h3c0.666992 0.666992 1.66699 1 3 1
c0.666992 0.666992 2 1 4 1l2 1c16 4.66699 29.667 10 41 16h1v137h-140v105h256z" />
    <glyph glyph-name="H" unicode="H" horiz-adv-x="683" 
d="M606 742v-742h-116v320h-296v-320h-116v742h116v-317h296v317h116z" />
    <glyph glyph-name="I" unicode="I" horiz-adv-x="270" 
d="M194 0h-116v742h116v-742z" />
    <glyph glyph-name="J" unicode="J" horiz-adv-x="420" 
d="M351 742l0.000976562 -489.999c0 -80.667 -28 -144.667 -84 -192c-47.333 -40 -107.333 -60 -180 -60c-16.667 0 -32.334 1 -47.001 3v119c14.667 -4 30.334 -6 47.001 -6c43.333 0 78.666 11 105.999 33c27.333 23.333 41 57.666 41 102.999v490h117z" />
    <glyph glyph-name="K" unicode="K" horiz-adv-x="653" 
d="M633 0h-145l-294 336v-336h-116v742h116v-306l238 306h146l-272 -357z" />
    <glyph glyph-name="L" unicode="L" horiz-adv-x="511" 
d="M504 105v-105h-311h-115v742h116v-637h310z" />
    <glyph glyph-name="M" unicode="M" horiz-adv-x="853" 
d="M776 0h-117v394l-232 -346l-233 346v-394h-116v776l349 -520l349 520v-776z" />
    <glyph glyph-name="N" unicode="N" horiz-adv-x="738" 
d="M661 -34l-467 511v-477h-116v777l466 -511v476h117v-776z" />
    <glyph glyph-name="O" unicode="O" horiz-adv-x="849" 
d="M425 0c-50 0 -98 9.66699 -144 29c-44 18.667 -83.333 45.334 -118 80.001s-61.334 74 -80.001 118c-19.333 46 -29 94 -29 144s9.66699 98.333 29 145c18.667 42.667 45.334 82 80.001 118c34 33.333 73.333 59.666 118 78.999c46 19.333 94 29 144 29
s98.333 -9.66699 145 -29c44 -19.333 83.333 -45.666 118 -78.999c33.333 -34.667 59.666 -74 78.999 -118c19.333 -46.667 29 -95 29 -145s-9.66699 -98 -29 -144c-19.333 -44.667 -45.666 -84 -78.999 -118c-36 -34.667 -75.333 -61.334 -118 -80.001
c-46.667 -19.333 -95 -29 -145 -29zM425 626c-70 0 -130 -25 -180 -75s-75 -110 -75 -180s25 -130 75 -180s110 -75 180 -75s130 25 180 75s75 110 75 180s-25 130 -75 180s-110 75 -180 75z" />
    <glyph glyph-name="P" unicode="P" horiz-adv-x="561" 
d="M78 742l98 -0.000976562h122c79.333 0 141 -24.333 185 -73c40 -44 60 -101.333 60 -172c0 -71.333 -20 -128.666 -60 -171.999c-43.333 -49.333 -105 -74 -185 -74h-104v-251h-116v742zM406 394.999c22 24.667 33 58.666 33 101.999c0 42.667 -11 76.334 -33 101.001
c-24.667 26.667 -60.667 40 -108 40h-104v-282h104c48 0 84 13 108 39z" />
    <glyph glyph-name="Q" unicode="Q" horiz-adv-x="846" 
d="M760 227c-19.333 -44.667 -45.666 -84 -78.999 -118l-8 -8l67 -88l-84 -63l-68 91l-12.5 -6l-12.5 -6c-46.667 -19.333 -95 -29 -145 -29s-98 9.66699 -144 29c-44 18.667 -83.333 45.334 -118 80.001s-61.334 74 -80.001 118c-19.333 46 -29 94 -29 144
s9.66699 98.333 29 145c19.333 44.667 46 84 80 118c34 33.333 73.333 59.666 118 78.999c43.333 19.333 91.333 29 144 29c52 0 100.333 -9.66699 145 -29c46 -20 85.333 -46.333 118 -79s59 -72 79 -118c19.333 -44.667 29 -93 29 -145
c0 -52.667 -9.66699 -100.667 -29 -144zM418 116c34 0 67 6.66699 99 20l-52 69l84 63l54 -73c46.667 50 70 108.667 70 176c0 70 -25 130 -75 180s-110 75 -180 75s-130 -25 -180 -75s-75 -110 -75 -180s25 -130 75 -180s110 -75 180 -75z" />
    <glyph glyph-name="R" unicode="R" horiz-adv-x="641" 
d="M397 268l200 -268h-131l-187 251h-85v-251h-116v742h98h122c80 0 141.667 -24.667 185 -74c40 -44 60 -101.333 60 -172c0 -70 -20 -127 -60 -171c-23.333 -26 -52 -45 -86 -57zM194 355h104.001c48 0 83.667 13.333 107 40c22 23.333 33 57 33 101
c0 44.667 -11 78.667 -33 102c-22.667 26 -58.334 39 -107.001 39h-104v-282z" />
    <glyph glyph-name="S" unicode="S" horiz-adv-x="528" 
d="M469 253c11.333 -35.333 12 -69.998 2 -103.998c-10.667 -36 -31 -67.167 -61 -93.5s-65.333 -43.5 -106 -51.5c-13.333 -2.66699 -28.333 -4 -45 -4c-31.333 0 -60.666 5.33301 -87.999 16c-48 19.333 -89 51 -123 95l92 72c21.333 -28.667 45.666 -48 72.999 -58
c22.667 -9.33301 45.334 -11.333 68.001 -6c18.667 3.33301 35.167 10.666 49.5 21.999s23.833 24.666 28.5 39.999c8 26.667 -3.33301 54.667 -34 84l-91 88l-91 86c-28 26.667 -47 56.334 -57 89.001c-10.667 32.667 -11.334 64 -2.00098 94c8.66699 32 27 59.667 55 83
c26 22 55.667 36 89 42c36 8 72.667 5.33301 110 -8c38.667 -15.333 72.334 -40.333 101.001 -75l-91 -73c-28.667 34.667 -61.334 48.667 -98.001 42c-13.333 -2.66699 -25 -7.83398 -35 -15.501s-16.333 -16.834 -19 -27.501c-6 -20.667 3.33301 -43 28 -67l124 -119
l56 -54c32 -29.333 53.667 -61.666 65 -96.999z" />
    <glyph glyph-name="T" unicode="T" horiz-adv-x="584" 
d="M555 742v-104h-204v-638h-117v638h-204v104h525z" />
    <glyph glyph-name="U" unicode="U" horiz-adv-x="691" 
d="M346 0c-72 0 -133.334 19.667 -184.001 59c-28.667 22 -50.667 48.667 -66 80c-16.667 33.333 -25 71 -25 113v490h116v-490c0 -44 15.333 -77.667 46 -101c30 -23.333 67.667 -35 113 -35c44.667 0 82.334 11.667 113.001 35c30 23.333 45 57 45 101v490h117v-490
c0 -40 -8.33301 -77.667 -25 -113c-16 -31.333 -38 -58 -66 -80c-50.667 -39.333 -112 -59 -184 -59z" />
    <glyph glyph-name="V" unicode="V" horiz-adv-x="708" 
d="M153 742l209 -489l195 489h126l-318 -775l-340 775h128z" />
    <glyph glyph-name="W" unicode="W" horiz-adv-x="1121" 
d="M1080 742l-319 -775l-196 447l-184 -447l-340 775h128l209 -489l123 308l60 153l65 -151l132 -310l195 489h127z" />
    <glyph glyph-name="X" unicode="X" horiz-adv-x="801" 
d="M744 0h-146l-198 290l-197 -290h-146l270 397l-235 345h146l162 -238l163 238h146l-236 -345z" />
    <glyph glyph-name="Y" unicode="Y" horiz-adv-x="688" 
d="M663 742l-260 -354v-388h-116v388l-261 354h135l184 -254l184 254h134z" />
    <glyph glyph-name="Z" unicode="Z" horiz-adv-x="705" 
d="M629 0h-578l381 626h-298v116h505l-381 -626h371v-116z" />
    <glyph glyph-name="bracketleft" unicode="[" horiz-adv-x="326" 
d="M194 798v-856h106v-70h-222v996h222v-70h-106z" />
    <glyph glyph-name="backslash" unicode="\" horiz-adv-x="491" 
d="M297 -97l-219 928h116l219 -928h-116z" />
    <glyph glyph-name="bracketright" unicode="]" horiz-adv-x="325" 
d="M132 798h-106v70h222v-996h-222v70h106v856z" />
    <glyph glyph-name="asciicircum" unicode="^" horiz-adv-x="501" 
d="M135 367h-110l231 375l218 -375h-108l-113 179z" />
    <glyph glyph-name="underscore" unicode="_" horiz-adv-x="780" 
d="M702 -170h-624v100h624v-100z" />
    <glyph glyph-name="grave" unicode="`" horiz-adv-x="226" 
d="M181 619h-73l-86 123h110z" />
    <glyph glyph-name="a" unicode="a" 
d="M543 0l-63 159h-264l-63 -159h-128l323 776l322 -776h-127zM258 263h180l-90 226z" />
    <glyph glyph-name="b" unicode="b" horiz-adv-x="588" 
d="M519 318c12.667 -29.333 19.001 -62 19.001 -98c0 -36.667 -8 -70 -24 -100c-16 -28 -38.667 -51.667 -68 -71c-52 -32.667 -120 -49 -204 -49h-66h-98v742h116h48c81.333 0 142.666 -15.333 183.999 -46c22.667 -16.667 39.667 -38 51 -64c10 -22.667 15 -48.667 15 -78
c0 -50 -19.333 -95.333 -58 -136c10.667 -7.33301 22 -16.333 34 -27c22 -22 39 -46.333 51 -73zM242.001 638l-48.001 0.00195312v-225c26.667 6 52 14 76 24c38 15.333 66.667 32.666 86 51.999c20.667 20 31 41.667 31 65c0 27.333 -8 46.666 -24 57.999
c-23.333 17.333 -63.666 26 -120.999 26zM389 137.002c30 19.333 45 46.998 45 82.998c0 38.667 -13 70.334 -39 95.001c-14.667 14.667 -33.667 27 -57 37c-2.66699 -0.666992 -7.5 -2.66699 -14.5 -6s-12.5 -5.66602 -16.5 -6.99902c-30 -12.667 -67.667 -24 -113 -34
v-200h48c64.667 0 113.667 10.667 147 32z" />
    <glyph glyph-name="c" unicode="c" horiz-adv-x="677" 
d="M623 219l0.00195312 -157.998c-20.667 -13.333 -40.667 -24 -60 -32c-46.667 -19.333 -95 -29 -145 -29s-98 9.66699 -144 29c-44 18.667 -83.333 45.334 -118 80.001s-61.334 74 -80.001 118c-19.333 46 -29 94 -29 144s9.66699 98.333 29 145
c19.333 44.667 46 84 80 118c35.333 35.333 74.666 61.666 117.999 78.999c43.333 19.333 91.333 29 144 29c52 0 100.333 -9.66699 145 -29c1.33301 -0.666992 4 -1.83398 8 -3.50098s6.66699 -2.83398 8 -3.50098v-137c-46 38 -99.667 57 -161 57
c-71.333 0 -131.333 -25 -180 -75c-50 -50 -75 -110 -75 -180s25 -130 75 -180s110 -75 180 -75s130 25 180 75c8.66699 8.66699 17 18 25 28z" />
    <glyph glyph-name="d" unicode="d" horiz-adv-x="675" 
d="M535 631c60 -66 90 -152.667 90 -260s-30 -194 -90 -260c-32.667 -36.667 -72.334 -64 -119.001 -82c-48.667 -19.333 -102.667 -29 -162 -29h-137h-39v742h116h60c61.333 0 115.333 -9.66699 162 -29c46.667 -18 86.334 -45.333 119.001 -82zM449 189
c40 44 60 104.667 60 182s-20 138 -60 182c-44 48.667 -109 73 -195 73h-60v-510h60c85.333 0 150.333 24.333 195 73z" />
    <glyph glyph-name="e" unicode="e" horiz-adv-x="582" 
d="M194 638v-198h271v-105h-271v-230h329v-105h-330h-115v742h115h330v-104h-329z" />
    <glyph glyph-name="f" unicode="f" horiz-adv-x="533" 
d="M194 638v-198h271v-105h-271v-335h-116v742h115h331v-104h-330z" />
    <glyph glyph-name="g" unicode="g" horiz-adv-x="710" 
d="M651 385l0.00390625 -105.001v-201l-26 -18v0c-0.666992 0 -1.33398 -0.333008 -2.00098 -1c-1.33301 -1.33301 -2.66602 -2 -3.99902 -2c-1.33301 -1.33301 -2.33301 -2 -3 -2c-1.33301 -1.33301 -2.66602 -2 -3.99902 -2
c-1.33301 -1.33301 -2.66602 -2.33301 -3.99902 -3c0 -0.666992 -0.333008 -1 -1 -1s-1.33398 -0.333008 -2.00098 -1l-1 -1c-1.33301 0 -2 -0.333008 -2 -1c-0.666992 -0.666992 -1.5 -1 -2.5 -1s-1.83301 -0.333008 -2.5 -1l-1 -1c-1.33301 0 -2 -0.333008 -2 -1
c-1.33301 -1.33301 -3 -2 -5 -2l-2 -2h-2c-0.666992 -0.666992 -2.33398 -1.66699 -5.00098 -3c-0.666992 0 -1.83398 -0.333008 -3.50098 -1s-2.83398 -1.33398 -3.50098 -2.00098l-1 -1c-40.667 -18 -85 -28.667 -133 -32h-1h-8h-1h-9c-42 0 -81 6.33301 -117 19h-1
c-1.33301 0.666992 -3.16602 1.5 -5.49902 2.5s-4.16602 1.5 -5.49902 1.5l-15 6c-13.333 4.66699 -25.333 10.667 -36 18c-30.667 16.667 -58 37.334 -82 62.001c-34.667 34.667 -61.334 74 -80.001 118c-15.333 36.667 -24.333 72.334 -27 107.001
c-1.33301 16 -2 28.333 -2 37v19c3.33301 46 13 88 29 126c19.333 44.667 46 84 80 118c35.333 35.333 74.666 61.666 117.999 78.999c43.333 19.333 91.333 29 144 29h9h1h8h1c4 0 7 -0.333008 9 -1c44 -3.33301 85.667 -13.666 125 -30.999c0 -0.666992 0.333008 -1 1 -1
l6 -3h1v0v-137c-12.667 11.333 -29.334 22 -50.001 32c-16 7.33301 -31.333 13 -46 17c-1.33301 0 -2.33301 0.333008 -3 1h-3c-0.666992 0.666992 -2 1 -4 1c-0.666992 0 -1.33398 0.333008 -2.00098 1c-1.33301 0.666992 -3.5 1 -6.5 1s-5.16699 0.333008 -6.5 1h-2l-2 1
h-2h-2c-2 0 -3.33301 0.333008 -4 1h-3h-6c-0.666992 0 -1.66699 0.333008 -3 1h-3h-4h-2h-7c-48 0 -91.667 -12 -131 -36c-0.666992 -0.666992 -2.33398 -1.66699 -5.00098 -3c-16.667 -10.667 -31.334 -22.667 -44.001 -36c-0.666992 -0.666992 -2 -1.83398 -4 -3.50098
s-3.66699 -3.33398 -5 -5.00098s-2.66602 -3.16699 -3.99902 -4.5c0 -0.666992 -0.333008 -1 -1 -1c-3.33301 -4 -7.66602 -10 -12.999 -18l-2 -2l-6 -9c-1.33301 -1.33301 -2 -2.66602 -2 -3.99902c-14.667 -23.333 -25 -48.666 -31 -75.999
c-0.666992 -0.666992 -1 -1.33398 -1 -2.00098c-2.66699 -13.333 -4.33398 -23.333 -5.00098 -30v-11c-0.666992 -3.33301 -1 -8 -1 -14c0 -5.33301 0.333008 -9.66602 1 -12.999c1.33301 -19.333 4.33301 -38 9 -56c12 -42.667 33.667 -79.667 65 -111
c50 -50 110 -75 180 -75h7c1.33301 0 2.33301 0.333008 3 1h4h3h3h5c0 0.666992 0.666992 1 2 1h4h2c2.66699 0 6.5 0.666992 11.5 2s8.5 2 10.5 2c0.666992 0 1.33398 0.333008 2.00098 1c2 0 3.33301 0.333008 4 1h3c0.666992 0.666992 1.66699 1 3 1
c0.666992 0.666992 2 1 4 1l2 1c16 4.66699 29.667 10 41 16h1v137h-140v105h256z" />
    <glyph glyph-name="h" unicode="h" horiz-adv-x="683" 
d="M606 742v-742h-116v320h-296v-320h-116v742h116v-317h296v317h116z" />
    <glyph glyph-name="i" unicode="i" horiz-adv-x="270" 
d="M194 0h-116v742h116v-742z" />
    <glyph glyph-name="j" unicode="j" horiz-adv-x="420" 
d="M351 742l0.000976562 -489.999c0 -80.667 -28 -144.667 -84 -192c-47.333 -40 -107.333 -60 -180 -60c-16.667 0 -32.334 1 -47.001 3v119c14.667 -4 30.334 -6 47.001 -6c43.333 0 78.666 11 105.999 33c27.333 23.333 41 57.666 41 102.999v490h117z" />
    <glyph glyph-name="k" unicode="k" horiz-adv-x="679" 
d="M633 0h-145l-294 336v-336h-116v742h116v-306l238 306h146l-272 -357z" />
    <glyph glyph-name="l" unicode="l" horiz-adv-x="511" 
d="M504 105v-105h-311h-115v742h116v-637h310z" />
    <glyph glyph-name="m" unicode="m" horiz-adv-x="853" 
d="M776 0h-117v394l-232 -346l-233 346v-394h-116v776l349 -520l349 520v-776z" />
    <glyph glyph-name="n" unicode="n" horiz-adv-x="738" 
d="M661 -34l-467 511v-477h-116v777l466 -511v476h117v-776z" />
    <glyph glyph-name="o" unicode="o" horiz-adv-x="849" 
d="M425 0c-50 0 -98 9.66699 -144 29c-44 18.667 -83.333 45.334 -118 80.001s-61.334 74 -80.001 118c-19.333 46 -29 94 -29 144s9.66699 98.333 29 145c18.667 42.667 45.334 82 80.001 118c34 33.333 73.333 59.666 118 78.999c46 19.333 94 29 144 29
s98.333 -9.66699 145 -29c44 -19.333 83.333 -45.666 118 -78.999c33.333 -34.667 59.666 -74 78.999 -118c19.333 -46.667 29 -95 29 -145s-9.66699 -98 -29 -144c-19.333 -44.667 -45.666 -84 -78.999 -118c-36 -34.667 -75.333 -61.334 -118 -80.001
c-46.667 -19.333 -95 -29 -145 -29zM425 626c-70 0 -130 -25 -180 -75s-75 -110 -75 -180s25 -130 75 -180s110 -75 180 -75s130 25 180 75s75 110 75 180s-25 130 -75 180s-110 75 -180 75z" />
    <glyph glyph-name="p" unicode="p" horiz-adv-x="561" 
d="M78 742l98 -0.000976562h122c79.333 0 141 -24.333 185 -73c40 -44 60 -101.333 60 -172c0 -71.333 -20 -128.666 -60 -171.999c-43.333 -49.333 -105 -74 -185 -74h-104v-251h-116v742zM406 394.999c22 24.667 33 58.666 33 101.999c0 42.667 -11 76.334 -33 101.001
c-24.667 26.667 -60.667 40 -108 40h-104v-282h104c48 0 84 13 108 39z" />
    <glyph glyph-name="q" unicode="q" horiz-adv-x="846" 
d="M760 227c-19.333 -44.667 -45.666 -84 -78.999 -118l-8 -8l67 -88l-84 -63l-68 91l-12.5 -6l-12.5 -6c-46.667 -19.333 -95 -29 -145 -29s-98 9.66699 -144 29c-44 18.667 -83.333 45.334 -118 80.001s-61.334 74 -80.001 118c-19.333 46 -29 94 -29 144
s9.66699 98.333 29 145c19.333 44.667 46 84 80 118c34 33.333 73.333 59.666 118 78.999c43.333 19.333 91.333 29 144 29c52 0 100.333 -9.66699 145 -29c46 -20 85.333 -46.333 118 -79s59 -72 79 -118c19.333 -44.667 29 -93 29 -145
c0 -52.667 -9.66699 -100.667 -29 -144zM418 116c34 0 67 6.66699 99 20l-52 69l84 63l54 -73c46.667 50 70 108.667 70 176c0 70 -25 130 -75 180s-110 75 -180 75s-130 -25 -180 -75s-75 -110 -75 -180s25 -130 75 -180s110 -75 180 -75z" />
    <glyph glyph-name="r" unicode="r" horiz-adv-x="641" 
d="M397 268l200 -268h-131l-187 251h-85v-251h-116v742h98h122c80 0 141.667 -24.667 185 -74c40 -44 60 -101.333 60 -172c0 -70 -20 -127 -60 -171c-23.333 -26 -52 -45 -86 -57zM194 355h104.001c48 0 83.667 13.333 107 40c22 23.333 33 57 33 101
c0 44.667 -11 78.667 -33 102c-22.667 26 -58.334 39 -107.001 39h-104v-282z" />
    <glyph glyph-name="s" unicode="s" horiz-adv-x="528" 
d="M469 253c11.333 -35.333 12 -69.998 2 -103.998c-10.667 -36 -31 -67.167 -61 -93.5s-65.333 -43.5 -106 -51.5c-13.333 -2.66699 -28.333 -4 -45 -4c-31.333 0 -60.666 5.33301 -87.999 16c-48 19.333 -89 51 -123 95l92 72c21.333 -28.667 45.666 -48 72.999 -58
c22.667 -9.33301 45.334 -11.333 68.001 -6c18.667 3.33301 35.167 10.666 49.5 21.999s23.833 24.666 28.5 39.999c8 26.667 -3.33301 54.667 -34 84l-91 88l-91 86c-28 26.667 -47 56.334 -57 89.001c-10.667 32.667 -11.334 64 -2.00098 94c8.66699 32 27 59.667 55 83
c26 22 55.667 36 89 42c36 8 72.667 5.33301 110 -8c38.667 -15.333 72.334 -40.333 101.001 -75l-91 -73c-28.667 34.667 -61.334 48.667 -98.001 42c-13.333 -2.66699 -25 -7.83398 -35 -15.501s-16.333 -16.834 -19 -27.501c-6 -20.667 3.33301 -43 28 -67l124 -119
l56 -54c32 -29.333 53.667 -61.666 65 -96.999z" />
    <glyph glyph-name="t" unicode="t" horiz-adv-x="584" 
d="M555 742v-104h-204v-638h-117v638h-204v104h525z" />
    <glyph glyph-name="u" unicode="u" horiz-adv-x="691" 
d="M346 0c-72 0 -133.334 19.667 -184.001 59c-28.667 22 -50.667 48.667 -66 80c-16.667 33.333 -25 71 -25 113v490h116v-490c0 -44 15.333 -77.667 46 -101c30 -23.333 67.667 -35 113 -35c44.667 0 82.334 11.667 113.001 35c30 23.333 45 57 45 101v490h117v-490
c0 -40 -8.33301 -77.667 -25 -113c-16 -31.333 -38 -58 -66 -80c-50.667 -39.333 -112 -59 -184 -59z" />
    <glyph glyph-name="v" unicode="v" horiz-adv-x="708" 
d="M153 742l209 -489l195 489h126l-318 -775l-340 775h128z" />
    <glyph glyph-name="w" unicode="w" horiz-adv-x="1121" 
d="M1080 742l-319 -775l-196 447l-184 -447l-340 775h128l209 -489l123 308l60 153l65 -151l132 -310l195 489h127z" />
    <glyph glyph-name="x" unicode="x" horiz-adv-x="801" 
d="M744 0h-146l-198 290l-197 -290h-146l270 397l-235 345h146l162 -238l163 238h146l-236 -345z" />
    <glyph glyph-name="y" unicode="y" horiz-adv-x="688" 
d="M663 742l-260 -354v-388h-116v388l-261 354h125l194 -264l194 264h124z" />
    <glyph glyph-name="z" unicode="z" horiz-adv-x="705" 
d="M629 0h-578l381 626h-298v116h505l-381 -626h371v-116z" />
    <glyph glyph-name="braceleft" unicode="{" horiz-adv-x="360" 
d="M303 -128c-56.667 0 -98.3369 6.66602 -125.004 19.999c-26.667 12.667 -46.667 31 -60 55c-14.667 26 -22 56.667 -22 92v249c0 3.33301 -0.666992 5.66602 -2 6.99902c-4.66699 4.66699 -11.667 8.33398 -21 11.001c-6.66699 2.66699 -14.167 4.66699 -22.5 6
s-14.833 2 -19.5 2h-7v111c24 0 42.667 2.33301 56 7c6.66699 2.66699 11.334 5.33398 14.001 8.00098c1.33301 1.33301 2 4 2 8v253c0 34.667 6.66699 64.667 20 90c12.667 24.667 32.334 43.667 59.001 57s69.334 20 128.001 20v-112
c-41.333 0 -67.666 -2.66699 -78.999 -8c-10.667 -4 -16 -19.667 -16 -47v-253c0 -30.667 -10 -57.667 -30 -81c20 -22 30 -48.333 30 -79v-249c0 -25.333 6 -41 18 -47s37.667 -9 77 -9v-111z" />
    <glyph glyph-name="bar" unicode="|" horiz-adv-x="249" 
d="M174 798v-966h-96v966h96z" />
    <glyph glyph-name="braceright" unicode="}" horiz-adv-x="360" 
d="M58 -128l-0.000976562 110.999c40 0 65.667 3 77 9c12.667 6.66699 19 22.334 19 47.001v249c0 31.333 9.66699 57.666 29 78.999c-19.333 22.667 -29 49.667 -29 81v253c0 26.667 -5.66699 42.334 -17 47.001c-10.667 5.33301 -37 8 -79 8v112
c58.667 0 101.334 -6.66699 128.001 -20s46.334 -32.333 59.001 -57c13.333 -25.333 20 -55.333 20 -90v-253c0 -4 0.666992 -6.66699 2 -8c2 -2 6.66699 -4.66699 14 -8c13.333 -4.66699 32 -7 56 -7v-111c-16.667 0 -33 -2.66699 -49 -8
c-5.33301 -2 -12.333 -5.66699 -21 -11c-1.33301 -1.33301 -2 -3.66602 -2 -6.99902v-249c0 -36.667 -7 -67.334 -21 -92.001s-34.333 -43 -61 -55c-26.667 -13.333 -68.334 -20 -125.001 -20z" />
    <glyph glyph-name="asciitilde" unicode="~" horiz-adv-x="701" 
d="M163 282h-113.001v23c0 28 7 54 21 78c11.333 19.333 29 37.333 53 54c36 22 77.667 32.333 125 31c44.667 0 89 -10.667 133 -32c54 -26.667 98 -29.667 132 -9c14 9.33301 21 23.666 21 42.999v23h114v-23c0 -30.667 -7 -58 -21 -82
c-13.333 -23.333 -31.666 -42.333 -54.999 -57c-32 -20 -69.5 -29.667 -112.5 -29s-85.833 11.334 -128.5 32.001c-27.333 14 -55.5 21 -84.5 21s-50.167 -5 -63.5 -15c-14 -8 -21 -19.667 -21 -35v-23z" />
    <glyph glyph-name="exclamdown" unicode="&#xa1;" horiz-adv-x="277" 
d="M139 431c-18.667 0 -34.5 6.5 -47.5 19.5s-19.5 28.5 -19.5 46.5c0 18.667 6.5 34.5 19.5 47.5s28.833 19.5 47.5 19.5c18 0 33.5 -6.5 46.5 -19.5s19.5 -28.833 19.5 -47.5c0 -18 -6.5 -33.5 -19.5 -46.5s-28.5 -19.5 -46.5 -19.5zM139 370c20 0 38 4.33301 54 13
l24 -601h-157l24 600c14.667 -8 33 -12 55 -12z" />
    <glyph glyph-name="cent" unicode="&#xa2;" horiz-adv-x="467" 
d="M391 221l46 -68.0039c-2.66699 -2 -12 -7.33301 -28 -16c-35.333 -16.667 -72.333 -25.667 -111 -27v-70h-70v78c-12 2.66699 -24.333 6.66699 -37 12c-32.667 14.667 -60.334 33.334 -83.001 56.001c-24 24.667 -42.667 52.334 -56 83.001
c-14 32.667 -21 66.667 -21 102c0 36 7 70 21 102c13.333 31.333 32 59 56 83c24.667 24.667 52.334 43.334 83.001 56.001c12.667 5.33301 25 9.33301 37 12v78h70v-70c36.667 0 72.667 -8.33301 108 -25l-36 -74c-22 10.667 -46 16.667 -72 18v-359
c26.667 1.33301 51.334 7.33301 74.001 18c11.333 6.66699 17.666 10.334 18.999 11.001zM228 203.996l0.000976562 334.998c-22.667 -8.66699 -43.334 -22.334 -62.001 -41.001c-35.333 -35.333 -53 -77.666 -53 -126.999s17.667 -91.666 53 -126.999
c17.333 -17.333 38 -30.666 62 -39.999z" />
    <glyph glyph-name="sterling" unicode="&#xa3;" horiz-adv-x="585" 
d="M529 117v-116.998h-467l21 74c22 78.667 34.667 146 38 202h-73v105h66c-0.666992 2.66699 -1.5 7 -2.5 13s-1.83301 10.333 -2.5 13c-8.66699 46 -13 81.333 -13 106c0 42.667 9.66699 81.167 29 115.5s46.333 61.833 81 82.5c35.333 20.667 73.666 31.167 114.999 31.5
s79 -9.16699 113 -28.5c28.667 -16.667 51.334 -39.334 68.001 -68.001s25 -62.667 25 -102h-116c0 33.333 -12 56.333 -36 69c-16 8.66699 -34 12.667 -54 12s-38.667 -5.66699 -56 -15c-34.667 -20 -52 -52.333 -52 -97c0 -16.667 3.33301 -44.334 10 -83.001
c5.33301 -26.667 8.33301 -43 9 -49h140v-105h-134c-2 -46 -10 -99 -24 -159h315z" />
    <glyph glyph-name="currency" unicode="&#xa4;" horiz-adv-x="615" 
d="M506 287c-6.66699 -14 -13.667 -26.666 -21 -37.999l64 -64l-56 -55l-63 63c-12.667 -8.66699 -25.334 -15.334 -38.001 -20.001c-25.333 -11.333 -53.333 -17 -84 -17c-31.333 0 -59.333 5.66699 -84 17c-11.333 4 -24 10.667 -38 20l-64 -63l-56 55l64 64
c-7.33301 11.333 -14.333 24 -21 38c-11.333 28 -17 56 -17 84c0 29.333 5.66699 57.333 17 84c6.66699 14 13.667 26.667 21 38l-64 64l56 56l64 -64c13.333 8.66699 26 15.667 38 21c26.667 11.333 54.667 17 84 17c28.667 0 56.334 -5.66699 83.001 -17
c14 -6 27 -13 39 -21l63 64l56 -56l-64 -64c8.66699 -11.333 15.667 -24 21 -38c11.333 -26.667 17 -54.667 17 -84c0 -28 -5.66699 -56 -17 -84zM308 232.001c25.333 0 49.335 6.66699 72.002 20c10 6.66699 18.667 13.667 26 21c9.33301 8.66699 16.333 17.334 21 26.001
c13.333 22.667 20 46.667 20 72c0 26 -6.66699 50.333 -20 73c-6.66699 10 -13.334 18.333 -20.001 25l-1 1c-7.33301 7.33301 -16 14.333 -26 21c-22.667 13.333 -46.667 20 -72 20c-26 0 -50.333 -6.66699 -73 -20c-10 -6.66699 -18.667 -13.667 -26 -21
s-14.333 -16 -21 -26c-13.333 -22.667 -20 -47 -20 -73c0 -25.333 6.66699 -49.333 20 -72c6.66699 -10.667 13.667 -19.334 21 -26.001l1 -1c9.33301 -9.33301 17.666 -16 24.999 -20c22.667 -13.333 47 -20 73 -20z" />
    <glyph glyph-name="yen" unicode="&#xa5;" horiz-adv-x="748" 
d="M478 411h146v-100h-192v-57h192v-100h-192v-154h-116v154h-192v100h192v57h-192v100h146l-238 331h136l206 -286l206 286h136z" />
    <glyph glyph-name="brokenbar" unicode="&#xa6;" horiz-adv-x="249" 
d="M174 195v-363h-96v363h96zM174 798v-364h-96v364h96z" />
    <glyph glyph-name="section" unicode="&#xa7;" horiz-adv-x="580" 
d="M528 100c10 -40 5.6709 -80.6689 -12.9961 -122.002c-16.667 -38 -43.667 -69.333 -81 -94c-44 -28.667 -92.667 -43 -146 -43c-11.333 0 -20 0.333008 -26 1c-69.333 6 -139.333 34.667 -210 86l69 94c52 -38 102.333 -59 151 -63c36.667 -4 69 3.33301 97 22
c17.333 11.333 30.166 25.5 38.499 42.5s10.5 33.5 6.5 49.5c-8.66699 38.667 -48.667 62.334 -120 71.001c-52.667 7.33301 -95.334 23.333 -128.001 48c-34 24.667 -56 56.334 -66 95.001c-9.33301 36 -7 71.667 7 107c8 22.667 21 43.667 39 63c-34 26 -56 58 -66 96
c-9.33301 36 -8 70.667 4 104c12 34.667 32.667 63 62 85c34.667 26.667 75.334 40 122.001 40h1c47.333 0 97.666 -15.333 150.999 -46l-59 -101c-33.333 20 -64 30 -92 30h-1c-20 0 -37 -5.33301 -51 -16c-22.667 -17.333 -30.667 -39 -24 -65
c9.33301 -34 43.666 -54.667 102.999 -62c60 -7.33301 109 -25.333 147 -54c38.667 -28 63 -63.667 73 -107c9.33301 -41.333 4.66602 -82 -14.001 -122c-8 -17.333 -17.667 -33 -29 -47c28.667 -25.333 47 -56 55 -92zM213.004 316.998
c8 -30.667 40.001 -49.6689 96.001 -57.002c18 -2 37 -5.66699 57 -11c12.667 10.667 22.667 23.334 30 38.001c7.33301 16 9.33301 31.667 6 47c-4 16.667 -14 30.334 -30 41.001c-52.667 32.667 -96.334 36 -131.001 10c-11.333 -8 -19.5 -18.5 -24.5 -31.5
s-6.16699 -25.167 -3.5 -36.5z" />
    <glyph glyph-name="dieresis" unicode="&#xa8;" horiz-adv-x="472" 
d="M208 603c0 -19.333 -6.83301 -35.833 -20.5 -49.5s-30.167 -20.5 -49.5 -20.5s-35.833 6.83301 -49.5 20.5s-20.5 30.167 -20.5 49.5s6.83301 35.833 20.5 49.5s30.167 20.5 49.5 20.5c18.667 0 35 -6.83301 49 -20.5s21 -30.167 21 -49.5zM405 603
c0 -19.333 -6.83496 -35.833 -20.502 -49.5s-30.167 -20.5 -49.5 -20.5s-35.666 6.83301 -48.999 20.5s-20 30.167 -20 49.5s6.83301 35.833 20.5 49.5s29.834 20.5 48.501 20.5c19.333 0 35.833 -6.83301 49.5 -20.5s20.5 -30.167 20.5 -49.5z" />
    <glyph glyph-name="copyright" unicode="&#xa9;" horiz-adv-x="857" 
d="M429 -4c-51.333 0 -100.001 9.99805 -146.001 29.998c-44.667 18.667 -84.334 45.334 -119.001 80.001s-61.667 74.334 -81 119.001c-19.333 48 -29 96.667 -29 146c0 50.667 9.66699 99.334 29 146.001c19.333 45.333 46.333 85 81 119c34 34.667 73.667 61.667 119 81
c46.667 19.333 95.334 29 146.001 29s99.334 -9.66699 146.001 -29c45.333 -19.333 85 -46.333 119 -81c35.333 -34 62 -73.667 80 -119c20 -46 30 -94.667 30 -146c0 -50 -10 -98.667 -30 -146c-18 -44 -44.667 -83.667 -80 -119c-34 -34.667 -73.667 -61.334 -119 -80.001
c-46 -20 -94.667 -30 -146 -30zM428.999 665.998c-82 0 -151.667 -28.667 -209 -86c-57.333 -58.667 -86 -128.334 -86 -209.001c0 -81.333 28.667 -150.666 86 -207.999c58 -58 127.667 -87 209 -87s151 29 209 87c57.333 57.333 86 126.666 86 207.999
c0 80.667 -28.667 150.334 -86 209.001c-57.333 57.333 -127 86 -209 86zM552.999 283.998v-90.999c-9.33301 -6 -20.666 -12 -33.999 -18c-26.667 -11.333 -54.334 -17 -83.001 -17s-56.334 5.66699 -83.001 17c-26 11.333 -48.667 26.666 -68 45.999
c-20 20 -35 42.333 -45 67c-11.333 25.333 -17 53 -17 83c0 30.667 5.66699 58.334 17 83.001c8.66699 23.333 23.667 46 45 68c19.333 19.333 42 34.666 68 45.999c25.333 10.667 53 16 83 16s57.667 -5.33301 83 -16l5 -2.5c2 -1 3.33301 -1.83301 4 -2.5v-78
c-27.333 22 -58 33 -92 33c-39.333 0 -74 -14.333 -104 -43c-28 -29.333 -42 -64 -42 -104c0 -40.667 14 -75 42 -103c28.667 -28.667 63.334 -43 104.001 -43c41.333 0 75.666 14.333 102.999 43c4.66699 4 9.33398 9.33301 14.001 16z" />
    <glyph glyph-name="ordfeminine" unicode="&#xaa;" horiz-adv-x="323" 
d="M241 698c8 -13.333 12 -29.0029 12 -47.0029v-189h-49h-65c-27.333 0 -49 8.66699 -65 26c-14 14.667 -21 34.667 -21 60c0 24 7 44 21 60c17.333 17.333 39 26 65 26h61v17c0 14.667 -5.66699 25.334 -17 32.001c-8.66699 4.66699 -18.834 6.83398 -30.501 6.50098
s-22.167 -3.16602 -31.5 -8.49902c-5.33301 -2.66699 -9.66602 -6.66699 -12.999 -12l-44 29c7.33301 11.333 17.333 20.666 30 27.999c17.333 10.667 36.333 16 57 16c20.667 0.666992 40 -3.66602 58 -12.999c14 -8.66699 24.667 -19 32 -31zM109 519.997
c6 -7.33301 16 -11 30 -11h61v77h-61c-14 0 -24 -3.33301 -30 -10s-9 -16 -9 -28s3 -21.333 9 -28z" />
    <glyph glyph-name="guillemotleft" unicode="&#xab;" horiz-adv-x="602" 
d="M328 32h-115l-176 236l175 233h115l-175 -233zM538 32h-115l-176 236l175 233h115l-175 -233z" />
    <glyph glyph-name="logicalnot" unicode="&#xac;" horiz-adv-x="579" 
d="M502 235h-100v172h-392v100h492v-272z" />
    <glyph glyph-name="registered" unicode="&#xae;" horiz-adv-x="857" 
d="M429 -4c-51.333 0 -100.001 9.99805 -146.001 29.998c-44.667 18.667 -84.334 45.334 -119.001 80.001s-61.667 74.334 -81 119.001c-19.333 48 -29 96.667 -29 146c0 50.667 9.66699 99.334 29 146.001c19.333 45.333 46.333 85 81 119c34 34.667 73.667 61.667 119 81
c46.667 19.333 95.334 29 146.001 29s99.334 -9.66699 146.001 -29c45.333 -19.333 85 -46.333 119 -81c35.333 -34 62 -73.667 80 -119c20 -46 30 -94.667 30 -146c0 -50 -10 -98.667 -30 -146c-18 -44 -44.667 -83.667 -80 -119c-34 -34.667 -73.667 -61.334 -119 -80.001
c-46 -20 -94.667 -30 -146 -30zM428.999 665.998c-82 0 -151.667 -28.667 -209 -86c-57.333 -58.667 -86 -128.334 -86 -209.001c0 -81.333 28.667 -150.666 86 -207.999c58 -58 127.667 -87 209 -87s151 29 209 87c57.333 57.333 86 126.666 86 207.999
c0 80.667 -28.667 150.334 -86 209.001c-57.333 57.333 -127 86 -209 86zM473.999 311.998l113.999 -153.999h-75l-107 144h-49v-144h-67v426h57h69c46 0 81.667 -14 107 -42c23.333 -25.333 35 -58.333 35 -99s-11.667 -73.667 -35 -99
c-13.333 -14.667 -29.666 -25.334 -48.999 -32.001zM356.998 361.999l59 0.00195312c28 0 48.667 7.66699 62 23c12.667 13.333 19 32.666 19 57.999s-6.33301 44.666 -19 57.999c-13.333 15.333 -34 23 -62 23h-59v-162z" />
    <glyph glyph-name="degree" unicode="&#xb0;" horiz-adv-x="357" 
d="M266 761c24.667 -23.333 37 -52.666 37 -87.999c0 -34 -12.333 -63.333 -37 -88c-24 -24 -53.333 -36 -88 -36c-33.333 0 -62.666 12 -87.999 36c-24 25.333 -36 54.666 -36 87.999c0 34.667 12 64 36 88c24.667 24.667 54 37 88 37c35.333 0 64.666 -12.333 87.999 -37z
M178 610c17.333 0 32.166 6.16699 44.499 18.5s18.5 27.166 18.5 44.499s-6.16699 32.166 -18.5 44.499s-27.166 18.5 -44.499 18.5s-32.166 -6.16699 -44.499 -18.5s-18.5 -27.166 -18.5 -44.499s6.16699 -32.166 18.5 -44.499s27.166 -18.5 44.499 -18.5z" />
    <glyph glyph-name="plusminus" unicode="&#xb1;" horiz-adv-x="543" 
d="M503 446v-100h-181v-181h-100v181h-181v100h181v181h100v-181h181zM503 0h-462v100h462v-100z" />
    <glyph glyph-name="twosuperior" unicode="&#xb2;" horiz-adv-x="352" 
d="M157 548l133.001 -0.000976562v-55h-245l34 44l129 172c12 16 18.333 29.333 19 40c2 7.33301 1 14.333 -3 21c-9.33301 14.667 -24 20.334 -44 17.001c-11.333 -2 -20.333 -6.33301 -27 -13c-8.66699 -7.33301 -15 -18.333 -19 -33l-49 29c7.33301 18 17.333 33 30 45
c16 14 34.667 23 56 27c20.667 3.33301 40.167 1 58.5 -7s32.166 -20 41.499 -36c10.667 -17.333 14.334 -36.666 11.001 -57.999c-2.66699 -20.667 -12.334 -42.334 -29.001 -65.001z" />
    <glyph glyph-name="threesuperior" unicode="&#xb3;" horiz-adv-x="351" 
d="M217 562c12 8.66699 20.501 20.1689 25.501 34.502s5.16699 27.833 0.5 40.5c-4 11.333 -11.667 20.666 -23 27.999c-14.667 8.66699 -34.334 13 -59.001 13h-47l61 110h-101v55h193l-63 -114c14.667 -3.33301 29.334 -9 44.001 -17c23.333 -14 39 -33.333 47 -58
c8 -22.667 7.66699 -47.334 -1 -74.001c-8 -24.667 -22.667 -45 -44 -61c-23.333 -17.333 -50 -26 -80 -26h-8c-36.667 2 -73.334 16.333 -110.001 43l31 44c54 -37.333 98.667 -43.333 134 -18z" />
    <glyph glyph-name="acute" unicode="&#xb4;" horiz-adv-x="225" 
d="M44 619l49 123h110l-86 -123h-73z" />
    <glyph glyph-name="mu" unicode="&#xb5;" horiz-adv-x="512" 
d="M473 533v-532.999h-84v30c-32 -20 -70 -30 -114 -30c-43.333 0 -81.333 10 -114 30v-182h-83v685h83v-352c0 -30.667 11 -55 33 -73c22 -16.667 49 -25 81 -25c33.333 0 60.333 8.33301 81 25c22 17.333 33 41.666 33 72.999v352h84z" />
    <glyph glyph-name="paragraph" unicode="&#xb6;" horiz-adv-x="597" 
d="M547 742l-70 -100v-742h-100v742h-68v-742h-100v516h-10c-52 0 -93 16.333 -123 49c-26.667 30 -40 68 -40 114s13.333 84 40 114c30 32.667 71 49 123 49h30h318z" />
    <glyph glyph-name="periodcentered" unicode="&#xb7;" horiz-adv-x="249" 
d="M195 371c0 -19.333 -6.83301 -35.833 -20.5 -49.5s-30.167 -20.5 -49.5 -20.5s-35.833 6.83301 -49.5 20.5s-20.5 30.167 -20.5 49.5s6.83301 35.833 20.5 49.5s30.167 20.5 49.5 20.5s35.833 -6.83301 49.5 -20.5s20.5 -30.167 20.5 -49.5z" />
    <glyph glyph-name="cedilla" unicode="&#xb8;" horiz-adv-x="314" 
d="M216 -203c-17.333 -10 -36.334 -15.001 -57.001 -15.001h-1c-4.66699 0 -13 0.666992 -25 2c-33.333 6 -67 22.333 -101 49l-8 6l40 52l7 -6c28.667 -20 53.334 -32 74.001 -36c3.33301 -0.666992 8 -1 14 -1c8 0 15.333 1.66699 22 5c8.66699 6.66699 12 15 10 25
c-0.666992 6.66699 -4.66699 13 -12 19c-10.667 8.66699 -24.334 14.334 -41.001 17.001l-52 9l55 77h82l-26 -36c10 -5.33301 18.333 -11 25 -17c18.667 -15.333 30 -34.333 34 -57c3.33301 -18 1.33301 -35.5 -6 -52.5s-18.666 -30.5 -33.999 -40.5z" />
    <glyph glyph-name="onesuperior" unicode="&#xb9;" horiz-adv-x="208" 
d="M132 493h-55v241l-43 -33l-33 44l131 98v-350z" />
    <glyph glyph-name="ordmasculine" unicode="&#xba;" horiz-adv-x="384" 
d="M289 694c27.333 -26 41.001 -58.334 41.001 -97.001c0 -39.333 -13.667 -72 -41 -98c-26.667 -26.667 -59 -40 -97 -40c-38.667 0 -71.334 13.333 -98.001 40s-40 59.334 -40 98.001c0 38 13.333 70.333 40 97c26 27.333 58.667 41 98 41c38.667 0 71 -13.667 97 -41z
M192.001 515.999c22.667 0 41.834 7.83301 57.501 23.5s23.5 34.834 23.5 57.501s-7.83301 41.834 -23.5 57.501s-34.834 23.5 -57.501 23.5s-41.834 -7.83301 -57.501 -23.5s-23.5 -34.834 -23.5 -57.501s7.83301 -41.834 23.5 -57.501s34.834 -23.5 57.501 -23.5z" />
    <glyph glyph-name="guillemotright" unicode="&#xbb;" horiz-adv-x="602" 
d="M274 32l176 236l-176 233h115l176 -233l-176 -236h-115zM64 32l176 236l-176 233h115l176 -233l-176 -236h-115z" />
    <glyph glyph-name="onequarter" unicode="&#xbc;" horiz-adv-x="686" 
d="M136 634l-43 -32l-33 44l131 97v-350h-55v241zM485 742h96l-405 -742h-96zM589 115h32v-54h-32v-61h-55v61h-174l229 305v-251zM534 115v87l-65 -87h65z" />
    <glyph glyph-name="onehalf" unicode="&#xbd;" horiz-adv-x="702" 
d="M484 742h96l-405 -742h-96zM135 634l-43 -32l-33 44l131 97v-350h-55v241zM512 55l133 -0.000976562v-55h-245l34 44l129 172c12 16 18.333 29.333 19 40c1.33301 8 0.333008 15 -3 21c-9.33301 14.667 -24 20.334 -44 17.001c-11.333 -2 -20.666 -6.33301 -27.999 -13
c-9.33301 -9.33301 -15.333 -20.333 -18 -33l-49 29c6.66699 18 16.667 33 30 45c16 14 34.667 23 56 27c20.667 3.33301 40.167 1 58.5 -7s32.166 -20 41.499 -36c10.667 -17.333 14.334 -36.666 11.001 -57.999c-2.66699 -20.667 -12.334 -42.334 -29.001 -65.001
l-27 -35.5l-34 -45.5z" />
    <glyph glyph-name="threequarters" unicode="&#xbe;" horiz-adv-x="698" 
d="M535 742h96l-405 -742h-96zM216 462c12 8.66699 20.5 20.0049 25.5 34.0049s5.5 27.333 1.5 40c-4 11.333 -12 20.666 -24 27.999c-14.667 9.33301 -34.334 13.666 -59.001 12.999h-46l60 111h-101v54h193l-62 -114c18.667 -4.66699 33.334 -10.334 44.001 -17.001
c22.667 -14 38 -33 46 -57c8 -24.667 8 -49.334 0 -74.001c-9.33301 -26.667 -24.333 -47.334 -45 -62.001c-23.333 -17.333 -49.666 -26 -78.999 -26h-9c-34 2 -70.667 16.333 -110 43l32 45c53.333 -38.667 97.666 -44.667 132.999 -18zM598 366.005v-251h33v-54h-33v-61
h-55v61h-173zM543 115.005v87l-64 -87h64z" />
    <glyph glyph-name="questiondown" unicode="&#xbf;" horiz-adv-x="588" 
d="M321 430c-18.667 0 -34.5 6.5 -47.5 19.5s-19.5 28.833 -19.5 47.5s6.5 34.5 19.5 47.5s28.833 19.5 47.5 19.5s34.5 -6.5 47.5 -19.5s19.5 -28.833 19.5 -47.5s-6.5 -34.5 -19.5 -47.5s-28.833 -19.5 -47.5 -19.5zM84 -129c-30 40 -39.999 86.666 -29.999 139.999
c10 52.667 41.333 108 94 166c3.33301 4 9 10 17 18c24.667 24.667 44.667 50.667 60 78c19.333 35.333 30 72 32 110c16 -9.33301 37.333 -14 64 -14c23.333 0 43 4.66699 59 14c-2 -55.333 -17.333 -108.666 -46 -159.999c-19.333 -34.667 -45 -68 -77 -100l-14 -14
c-30.667 -34 -52 -67 -64 -99c-10.667 -32.667 -8.33398 -59 6.99902 -79c12.667 -17.333 32.334 -29 59.001 -35c11.333 -3.33301 25 -5 41 -5c14 0 28.667 1.66699 44 5c24.667 7.33301 43.667 18.666 57 33.999c17.333 18.667 26.666 43.334 27.999 74.001h123
c-1.33301 -52 -18 -97.333 -50 -136c-30.667 -36.667 -71.334 -61.667 -122.001 -75c-24 -7.33301 -50.667 -11 -80 -11c-41.333 0 -80.166 8 -116.499 24s-64.833 37.667 -85.5 65z" />
    <glyph glyph-name="Agrave" unicode="&#xc0;" 
d="M435 832h-70l-104 117h104zM543 0l-63 159h-264l-63 -159h-128l323 776l322 -776h-127zM258 263h180l-90 226z" />
    <glyph glyph-name="Aacute" unicode="&#xc1;" 
d="M293 832l70 117h104l-104 -117h-70zM543 0l-63 159h-264l-63 -159h-128l323 776l322 -776h-127zM258 263h180l-90 226z" />
    <glyph glyph-name="Acircumflex" unicode="&#xc2;" 
d="M448 832l-40 -34l-59 71l-64 -71l-39 35l105 116zM543 0l-63 159h-264l-63 -159h-128l323 776l322 -776h-127zM258 263h180l-90 226z" />
    <glyph glyph-name="Atilde" unicode="&#xc3;" 
d="M481 924l-0.00292969 -13c0 -14 -3 -26.333 -9 -37c-5.33301 -10 -13.666 -18.667 -24.999 -26c-13.333 -8.66699 -29.666 -13 -48.999 -13s-39 4.66699 -59 14c-11.333 6 -23.666 9 -36.999 9c-11.333 0 -20 -2 -26 -6c-5.33301 -3.33301 -8 -8 -8 -14v-12h-55v12
c0 12 3.33301 24 10 36c6 10 14 18 24 24c14.667 10 33 15 55 15h1c20.667 -0.666992 40.667 -5.66699 60 -15c12 -6 23.333 -9 34 -9c8.66699 0 15.667 1.66699 21 5c6 4 9 9.66699 9 17v13h54zM542.997 0l-63 159h-264l-63 -159h-128l323 776l322 -776h-127zM257.997 263
h180l-90 226z" />
    <glyph glyph-name="Adieresis" unicode="&#xc4;" 
d="M325 898c0 -14 -5 -26 -15 -36s-22 -15 -36 -15s-26 5 -36 15s-15 22 -15 36s5 26 15 36s22 15 36 15s26 -5 36 -15s15 -22 15 -36zM472 898c0 -14 -5 -26 -15 -36s-22 -15 -36 -15s-26 5 -36 15s-15 22 -15 36s5 26 15 36s22 15 36 15s26 -5 36 -15s15 -22 15 -36z
M543 0l-63 159h-264l-63 -159h-128l323 776l322 -776h-127zM258 263h180l-90 226z" />
    <glyph glyph-name="Aring" unicode="&#xc5;" 
d="M347 822c-21.333 0 -39.333 7.5 -54 22.5s-22 33.167 -22 54.5c0 20.667 7.5 38.5 22.5 53.5s32.833 22.5 53.5 22.5c21.333 0 39.5 -7.33301 54.5 -22s22.5 -32.667 22.5 -54s-7.5 -39.5 -22.5 -54.5s-33.167 -22.5 -54.5 -22.5zM347 929c-8 0 -15 -3 -21 -9
s-9 -13 -9 -21c0 -8.66699 3 -16 9 -22s13 -9 21 -9c8.66699 0 16 3 22 9s9 13.333 9 22c0 8 -3 15 -9 21s-13.333 9 -22 9zM543 0l-63 159h-264l-63 -159h-128l323 776l322 -776h-127zM258 263h180l-90 226z" />
    <glyph glyph-name="AE" unicode="&#xc6;" horiz-adv-x="949" 
d="M626 105h298v-105h-382h1l-63 159h-264l-63 -159h-128l323 776l14 -34h299v-104h-256l82 -198h245v-105h-202zM258 263h180l-90 226z" />
    <glyph glyph-name="Ccedilla" unicode="&#xc7;" horiz-adv-x="677" 
d="M598 191c8.66699 8.66699 17.0029 18.0029 25.0029 28.0029v-158c-20.667 -13.333 -40.667 -24 -60 -32c-42 -17.333 -85 -27 -129 -29l-26 -36c12 -6.66699 20.333 -12.334 25 -17.001c18 -14 29.667 -33 35 -57c3.33301 -18 1.33301 -35.5 -6 -52.5
s-19 -30.5 -35 -40.5s-35 -15 -57 -15c-6 0 -14.333 0.666992 -25 2c-34 6.66699 -68 23 -102 49l-8 6l40 52l8 -6c27.333 -20 51.666 -32 72.999 -36c3.33301 -0.666992 8 -1 14 -1c9.33301 0 16.666 1.66699 21.999 5c9.33301 6 13 14.333 11 25
c-0.666992 6 -5 12.333 -13 19c-9.33301 8 -22.666 13.667 -39.999 17l-52 9l59 82c-29.333 5.33301 -57 13.333 -83 24c-44 18.667 -83.333 45.334 -118 80.001s-61.334 74 -80.001 118c-19.333 46 -29 94 -29 144s9.66699 98.333 29 145c19.333 44.667 46 84 80 118
c35.333 35.333 74.666 61.666 117.999 78.999c43.333 19.333 91.333 29 144 29c52 0 100.333 -9.66699 145 -29c1.33301 -0.666992 4 -1.83398 8 -3.50098s6.66699 -2.83398 8 -3.50098v-137c-46 38 -99.667 57 -161 57c-71.333 0 -131.333 -25 -180 -75
c-50 -50 -75 -110 -75 -180s25 -130 75 -180s110 -75 180 -75s130 25 180 75z" />
    <glyph glyph-name="Egrave" unicode="&#xc8;" horiz-adv-x="582" 
d="M194 638h329v104h-330h-115v-742h115h330v105h-329v230h271v105h-271v198zM399 822h-70l-105 117h105z" />
    <glyph glyph-name="Eacute" unicode="&#xc9;" horiz-adv-x="582" 
d="M194 638v-198h271v-105h-271v-230h329v-105h-330h-115v742h115h330v-104h-329zM224 822l70 117h105l-105 -117h-70z" />
    <glyph glyph-name="Ecircumflex" unicode="&#xca;" horiz-adv-x="582" 
d="M194 638v-198h271v-105h-271v-230h329v-105h-330h-115v742h115h330v-104h-329zM402 852l-40 -34l-60 71l-63 -71l-39 35l104 116z" />
    <glyph glyph-name="Edieresis" unicode="&#xcb;" horiz-adv-x="582" 
d="M194 638v-198h271v-105h-271v-230h329v-105h-330h-115v742h115h330v-104h-329zM278 888c0 -14 -5 -26 -15 -36s-22 -15 -36 -15s-26 5 -36 15s-15 22 -15 36s5 26 15 36s22 15 36 15s26 -5 36 -15s15 -22 15 -36zM425 888c0 -14 -5 -26 -15 -36s-22 -15 -36 -15
s-26 5 -36 15s-15 22 -15 36s5 26 15 36s22 15 36 15s26 -5 36 -15s15 -22 15 -36z" />
    <glyph glyph-name="Igrave" unicode="&#xcc;" horiz-adv-x="285" 
d="M201 0v742h-116v-742h116zM190 822h-69l-105 117h105z" />
    <glyph glyph-name="Iacute" unicode="&#xcd;" horiz-adv-x="285" 
d="M84 0v742h116v-742h-116zM95 822l70 117h104l-104 -117h-70z" />
    <glyph glyph-name="Icircumflex" unicode="&#xce;" horiz-adv-x="272" 
d="M79 0v742h116v-742h-116zM238 852l-40 -34l-59 71l-64 -71l-39 35l104 116z" />
    <glyph glyph-name="Idieresis" unicode="&#xcf;" horiz-adv-x="272" 
d="M79 0v742h116v-742h-116zM115 888c0 -14 -5 -26 -15 -36s-22 -15 -36 -15c-14.667 0 -27 5 -37 15s-15 22 -15 36s5 26 15 36s22.333 15 37 15c14 0 26 -5 36 -15s15 -22 15 -36zM262 888c0 -14 -5 -26 -15 -36s-22 -15 -36 -15c-14.667 0 -27 5 -37 15s-15 22 -15 36
s5 26 15 36s22.333 15 37 15c14 0 26 -5 36 -15s15 -22 15 -36z" />
    <glyph glyph-name="Eth" unicode="&#xd0;" horiz-adv-x="742" 
d="M602 631c60 -66 90 -152.667 90 -260s-30 -194 -90 -260c-32.667 -36.667 -72.334 -64 -119.001 -82c-48.667 -19.333 -102.667 -29 -162 -29h-137h-39v321h-67v100h67v321h116h60c61.333 0 115.333 -9.66699 162 -29c46.667 -18 86.334 -45.333 119.001 -82zM516 189
c40 44 60 104.667 60 182s-20 138 -60 182c-44 48.667 -109 73 -195 73h-60v-205h124v-100h-124v-205h60c85.333 0 150.333 24.333 195 73z" />
    <glyph glyph-name="Ntilde" unicode="&#xd1;" horiz-adv-x="738" 
d="M503 914l-0.00195312 -13c0 -14 -3 -26.333 -9 -37c-5.33301 -10 -13.666 -18.667 -24.999 -26c-13.333 -8.66699 -29.666 -13 -48.999 -13s-39 4.66699 -59 14c-11.333 6 -23.666 9 -36.999 9c-11.333 0 -20 -2 -26 -6c-5.33301 -3.33301 -8 -8 -8 -14v-12h-55v12
c0 12 3.33301 24 10 36c6 10 14 18 24 24c14.667 10 33 15 55 15h1c21.333 -1.33301 41.333 -6.33301 60 -15c11.333 -6 22.666 -9 33.999 -9c8.66699 0 15.667 1.66699 21 5c6 4 9 9.66699 9 17v13h54zM660.998 -34l-467 511v-477h-116v777l466 -511v476h117v-776z" />
    <glyph glyph-name="Ograve" unicode="&#xd2;" horiz-adv-x="849" 
d="M425 0c50 0 98.333 9.66699 145 29c42.667 18.667 82 45.334 118 80.001c33.333 34 59.666 73.333 78.999 118c19.333 46 29 94 29 144s-9.66699 98.333 -29 145c-19.333 44 -45.666 83.333 -78.999 118c-34.667 33.333 -74 59.666 -118 78.999
c-46.667 19.333 -95 29 -145 29s-98 -9.66699 -144 -29c-44.667 -19.333 -84 -45.666 -118 -78.999c-34.667 -36 -61.334 -75.333 -80.001 -118c-19.333 -46.667 -29 -95 -29 -145s9.66699 -98 29 -144c18.667 -44 45.334 -83.333 80.001 -118s74 -61.334 118 -80.001
c46 -19.333 94 -29 144 -29zM425 626c70 0 130 -25 180 -75s75 -110 75 -180s-25 -130 -75 -180s-110 -75 -180 -75s-130 25 -180 75s-75 110 -75 180s25 130 75 180s110 75 180 75zM462 822h-69l-105 117h105z" />
    <glyph glyph-name="Oacute" unicode="&#xd3;" horiz-adv-x="849" 
d="M425 0c-50 0 -98 9.66699 -144 29c-44 18.667 -83.333 45.334 -118 80.001s-61.334 74 -80.001 118c-19.333 46 -29 94 -29 144s9.66699 98.333 29 145c18.667 42.667 45.334 82 80.001 118c34 33.333 73.333 59.666 118 78.999c46 19.333 94 29 144 29
s98.333 -9.66699 145 -29c44 -19.333 83.333 -45.666 118 -78.999c33.333 -34.667 59.666 -74 78.999 -118c19.333 -46.667 29 -95 29 -145s-9.66699 -98 -29 -144c-19.333 -44.667 -45.666 -84 -78.999 -118c-36 -34.667 -75.333 -61.334 -118 -80.001
c-46.667 -19.333 -95 -29 -145 -29zM425 626c-70 0 -130 -25 -180 -75s-75 -110 -75 -180s25 -130 75 -180s110 -75 180 -75s130 25 180 75s75 110 75 180s-25 130 -75 180s-110 75 -180 75zM393 822l70 117h104l-104 -117h-70z" />
    <glyph glyph-name="Ocircumflex" unicode="&#xd4;" horiz-adv-x="849" 
d="M425 0c-50 0 -98 9.66699 -144 29c-44 18.667 -83.333 45.334 -118 80.001s-61.334 74 -80.001 118c-19.333 46 -29 94 -29 144s9.66699 98.333 29 145c18.667 42.667 45.334 82 80.001 118c34 33.333 73.333 59.666 118 78.999c46 19.333 94 29 144 29
s98.333 -9.66699 145 -29c44 -19.333 83.333 -45.666 118 -78.999c33.333 -34.667 59.666 -74 78.999 -118c19.333 -46.667 29 -95 29 -145s-9.66699 -98 -29 -144c-19.333 -44.667 -45.666 -84 -78.999 -118c-36 -34.667 -75.333 -61.334 -118 -80.001
c-46.667 -19.333 -95 -29 -145 -29zM425 626c-70 0 -130 -25 -180 -75s-75 -110 -75 -180s25 -130 75 -180s110 -75 180 -75s130 25 180 75s75 110 75 180s-25 130 -75 180s-110 75 -180 75zM526 852l-40 -34l-59 71l-64 -71l-39 35l104 116z" />
    <glyph glyph-name="Otilde" unicode="&#xd5;" horiz-adv-x="849" 
d="M425 0c-50 0 -98 9.66699 -144 29c-44 18.667 -83.333 45.334 -118 80.001s-61.334 74 -80.001 118c-19.333 46 -29 94 -29 144s9.66699 98.333 29 145c18.667 42.667 45.334 82 80.001 118c34 33.333 73.333 59.666 118 78.999c46 19.333 94 29 144 29
s98.333 -9.66699 145 -29c44 -19.333 83.333 -45.666 118 -78.999c33.333 -34.667 59.666 -74 78.999 -118c19.333 -46.667 29 -95 29 -145s-9.66699 -98 -29 -144c-19.333 -44.667 -45.666 -84 -78.999 -118c-36 -34.667 -75.333 -61.334 -118 -80.001
c-46.667 -19.333 -95 -29 -145 -29zM425 626c-70 0 -130 -25 -180 -75s-75 -110 -75 -180s25 -130 75 -180s110 -75 180 -75s130 25 180 75s75 110 75 180s-25 130 -75 180s-110 75 -180 75zM559 914l-0.00195312 -13c0 -14 -3 -26.333 -9 -37
c-5.33301 -9.33301 -13.666 -18 -24.999 -26c-13.333 -8.66699 -30 -13 -50 -13c-18.667 0 -38 4.66699 -58 14c-11.333 6 -23.666 9 -36.999 9c-11.333 0 -20 -2 -26 -6c-5.33301 -3.33301 -8 -8 -8 -14v-12h-55v12c0 13.333 3.33301 25.333 10 36
c4.66699 9.33301 12.667 17.333 24 24c14.667 10 33 15 55 15h1c21.333 -1.33301 41.333 -6.33301 60 -15c10.667 -6 22 -9 34 -9c8.66699 0 15.667 1.66699 21 5c6 4 9 9.66699 9 17v13h54z" />
    <glyph glyph-name="Odieresis" unicode="&#xd6;" horiz-adv-x="849" 
d="M425 0c-50 0 -98 9.66699 -144 29c-44 18.667 -83.333 45.334 -118 80.001s-61.334 74 -80.001 118c-19.333 46 -29 94 -29 144s9.66699 98.333 29 145c18.667 42.667 45.334 82 80.001 118c34 33.333 73.333 59.666 118 78.999c46 19.333 94 29 144 29
s98.333 -9.66699 145 -29c44 -19.333 83.333 -45.666 118 -78.999c33.333 -34.667 59.666 -74 78.999 -118c19.333 -46.667 29 -95 29 -145s-9.66699 -98 -29 -144c-19.333 -44.667 -45.666 -84 -78.999 -118c-36 -34.667 -75.333 -61.334 -118 -80.001
c-46.667 -19.333 -95 -29 -145 -29zM425 626c-70 0 -130 -25 -180 -75s-75 -110 -75 -180s25 -130 75 -180s110 -75 180 -75s130 25 180 75s75 110 75 180s-25 130 -75 180s-110 75 -180 75zM403 888c0 -14 -5 -26 -15 -36s-22 -15 -36 -15c-14.667 0 -27 5 -37 15
s-15 22 -15 36s5 26 15 36s22.333 15 37 15c14 0 26 -5 36 -15s15 -22 15 -36zM550 888c0 -14 -5 -26 -15 -36s-22 -15 -36 -15c-14.667 0 -27 5 -37 15s-15 22 -15 36s5 26 15 36s22.333 15 37 15c14 0 26 -5 36 -15s15 -22 15 -36z" />
    <glyph glyph-name="multiply" unicode="&#xd7;" horiz-adv-x="545" 
d="M341 371l144 -144l-34 -34l-34 -35l-144 145l-145 -145l-34 35l-34 34l144 144l-144 145l68 68l145 -145l144 145l34 -34l34 -34z" />
    <glyph glyph-name="Oslash" unicode="&#xd8;" horiz-adv-x="847" 
d="M766 516c19.333 -46.667 29.001 -94.9951 29.001 -144.995s-9.66699 -98 -29 -144c-18.667 -44.667 -45 -84 -79 -118c-36 -34.667 -75.333 -61.334 -118 -80.001c-46.667 -19.333 -95 -29 -145 -29c-43.333 0 -86 7.66699 -128 23c-2 0.666992 -4.83301 1.66699 -8.5 3
s-6.16699 2.33301 -7.5 3c-17.333 8 -29.666 14 -36.999 18l-67 -90h-116l108 146l-6 6c-34.667 34.667 -61.334 74 -80.001 118c-19.333 46 -29 94 -29 144s9.66699 98.333 29 145c18.667 42.667 45.334 82 80.001 118c33.333 33.333 72.666 59.666 117.999 78.999
c46 19.333 94 29 144 29c45.333 0 88 -7.33301 128 -22c2 -0.666992 4.83301 -1.83398 8.5 -3.50098s6.5 -2.83398 8.5 -3.50098c14 -6 26.333 -12 37 -18l66 90h116l-107 -146c2.66699 -2.66699 4.66699 -4.33398 6 -5.00098c33.333 -34.667 59.666 -74 78.999 -118z
M169.001 371.005c0 -66.667 22.999 -124.667 68.999 -174l298 403c-17.333 8 -30.666 13.333 -39.999 16c-25.333 6.66699 -49.333 10 -72 10c-70 0 -130 -25 -180 -75s-75 -110 -75 -180zM604 191.005c50 50 75.001 110 75.001 180c0 66.667 -22.667 124.667 -68 174
l-299 -403c13.333 -6 26.666 -11 39.999 -15c24 -7.33301 48 -11 72 -11c70 0 130 25 180 75z" />
    <glyph glyph-name="Ugrave" unicode="&#xd9;" horiz-adv-x="691" 
d="M346 0c72 0 133.334 19.667 184.001 59c28 22 50 48.667 66 80c16.667 35.333 25 73 25 113v490h-117v-490c0 -44 -15 -77.667 -45 -101c-30.667 -23.333 -68.334 -35 -113.001 -35c-45.333 0 -83 11.667 -113 35c-30.667 23.333 -46 57 -46 101v490h-116v-490
c0 -42 8.33301 -79.667 25 -113c15.333 -31.333 37.333 -58 66 -80c50.667 -39.333 112 -59 184 -59zM433.001 822h-70l-104 117h104z" />
    <glyph glyph-name="Uacute" unicode="&#xda;" horiz-adv-x="691" 
d="M346 0c-72 0 -133.334 19.667 -184.001 59c-28.667 22 -50.667 48.667 -66 80c-16.667 33.333 -25 71 -25 113v490h116v-490c0 -44 15.333 -77.667 46 -101c30 -23.333 67.667 -35 113 -35c44.667 0 82.334 11.667 113.001 35c30 23.333 45 57 45 101v490h117v-490
c0 -40 -8.33301 -77.667 -25 -113c-16 -31.333 -38 -58 -66 -80c-50.667 -39.333 -112 -59 -184 -59zM258.999 822l69 117h105l-105 -117h-69z" />
    <glyph glyph-name="Ucircumflex" unicode="&#xdb;" horiz-adv-x="691" 
d="M346 0c-72 0 -133.334 19.667 -184.001 59c-28.667 22 -50.667 48.667 -66 80c-16.667 33.333 -25 71 -25 113v490h116v-490c0 -44 15.333 -77.667 46 -101c30 -23.333 67.667 -35 113 -35c44.667 0 82.334 11.667 113.001 35c30 23.333 45 57 45 101v490h117v-490
c0 -40 -8.33301 -77.667 -25 -113c-16 -31.333 -38 -58 -66 -80c-50.667 -39.333 -112 -59 -184 -59zM446.999 852l-40 -34l-59 71l-64 -71l-39 35l104 116z" />
    <glyph glyph-name="Udieresis" unicode="&#xdc;" horiz-adv-x="691" 
d="M346 0c-72 0 -133.334 19.667 -184.001 59c-28.667 22 -50.667 48.667 -66 80c-16.667 33.333 -25 71 -25 113v490h116v-490c0 -44 15.333 -77.667 46 -101c30 -23.333 67.667 -35 113 -35c44.667 0 82.334 11.667 113.001 35c30 23.333 45 57 45 101v490h117v-490
c0 -40 -8.33301 -77.667 -25 -113c-16 -31.333 -38 -58 -66 -80c-50.667 -39.333 -112 -59 -184 -59zM322.999 888c0 -14 -5 -26 -15 -36s-22 -15 -36 -15s-26 5 -36 15s-15 22 -15 36s5 26 15 36s22 15 36 15s26 -5 36 -15s15 -22 15 -36zM469.999 888
c0 -14 -5 -26 -15 -36s-22 -15 -36 -15s-26 5 -36 15s-15 22 -15 36s5 26 15 36s22 15 36 15s26 -5 36 -15s15 -22 15 -36z" />
    <glyph glyph-name="Yacute" unicode="&#xdd;" horiz-adv-x="688" 
d="M663 742l-260 -354v-388h-116v388l-261 354h125l194 -264l194 264h124zM279 822l70 117h104l-104 -117h-70z" />
    <glyph glyph-name="Thorn" unicode="&#xde;" horiz-adv-x="568" 
d="M488 576c40 -45.333 59.999 -102.667 59.999 -172c0 -70.667 -20 -128 -60 -172c-43.333 -49.333 -105 -74 -185 -74h-109v-158h-116v742h116v-92h109c78.667 0 140.334 -24.667 185.001 -74zM410.999 301.999c22 24.667 33 58.666 33 101.999
c0 42.667 -11 76.334 -33 101.001c-24 26.667 -60 40 -108 40h-109v-282h109c48 0 84 13 108 39z" />
    <glyph glyph-name="germandbls" unicode="&#xdf;" horiz-adv-x="611" 
d="M561 224c0 -31.333 -6.66699 -60.3359 -20 -87.0029c-12.667 -27.333 -32.334 -51.666 -59.001 -72.999c-52.667 -42.667 -123 -64 -211 -64h-25v116h25c60 0 106 13 138 39c24 20 36 43 36 69c0 28.667 -12.667 53 -38 73c-32.667 26.667 -79 40 -139 40h-22v117h11
c68 0 108.667 19.667 122 59c4.66699 15.333 4 31.333 -2 48s-16.667 30.667 -32 42c-18 13.333 -40 20.833 -66 22.5s-46.667 -1.83301 -62 -10.5c-15.333 -8 -23 -18.333 -23 -31v-584h-116v584c0 60.667 29 105.667 87 135c36.667 18.667 78.334 26.334 125.001 23.001
c46 -4 87.333 -19 124 -45c35.333 -26 60 -59.333 74 -100c14 -41.333 14.333 -81.666 1 -120.999c-8 -24.667 -21.333 -47 -40 -67c36 -21.333 63.667 -48.5 83 -81.5s29 -67.5 29 -103.5z" />
    <glyph glyph-name="agrave" unicode="&#xe0;" 
d="M435 832h-70l-104 117h104zM543 0l-63 159h-264l-63 -159h-128l323 776l322 -776h-127zM258 263h180l-90 226z" />
    <glyph glyph-name="aacute" unicode="&#xe1;" 
d="M293 832l70 117h104l-104 -117h-70zM543 0l-63 159h-264l-63 -159h-128l323 776l322 -776h-127zM258 263h180l-90 226z" />
    <glyph glyph-name="acircumflex" unicode="&#xe2;" 
d="M448 832l-40 -34l-59 71l-64 -71l-39 35l105 116zM543 0l-63 159h-264l-63 -159h-128l323 776l322 -776h-127zM258 263h180l-90 226z" />
    <glyph glyph-name="atilde" unicode="&#xe3;" 
d="M481 924l-0.00292969 -13c0 -14 -3 -26.333 -9 -37c-5.33301 -10 -13.666 -18.667 -24.999 -26c-13.333 -8.66699 -29.666 -13 -48.999 -13s-39 4.66699 -59 14c-11.333 6 -23.666 9 -36.999 9c-11.333 0 -20 -2 -26 -6c-5.33301 -3.33301 -8 -8 -8 -14v-12h-55v12
c0 12 3.33301 24 10 36c6 10 14 18 24 24c14.667 10 33 15 55 15h1c20.667 -0.666992 40.667 -5.66699 60 -15c12 -6 23.333 -9 34 -9c8.66699 0 15.667 1.66699 21 5c6 4 9 9.66699 9 17v13h54zM542.997 0l-63 159h-264l-63 -159h-128l323 776l322 -776h-127zM257.997 263
h180l-90 226z" />
    <glyph glyph-name="adieresis" unicode="&#xe4;" 
d="M325 898c0 -14 -5 -26 -15 -36s-22 -15 -36 -15s-26 5 -36 15s-15 22 -15 36s5 26 15 36s22 15 36 15s26 -5 36 -15s15 -22 15 -36zM472 898c0 -14 -5 -26 -15 -36s-22 -15 -36 -15s-26 5 -36 15s-15 22 -15 36s5 26 15 36s22 15 36 15s26 -5 36 -15s15 -22 15 -36z
M543 0l-63 159h-264l-63 -159h-128l323 776l322 -776h-127zM258 263h180l-90 226z" />
    <glyph glyph-name="aring" unicode="&#xe5;" 
d="M347 822c-21.333 0 -39.333 7.5 -54 22.5s-22 33.167 -22 54.5c0 20.667 7.5 38.5 22.5 53.5s32.833 22.5 53.5 22.5c21.333 0 39.5 -7.33301 54.5 -22s22.5 -32.667 22.5 -54s-7.5 -39.5 -22.5 -54.5s-33.167 -22.5 -54.5 -22.5zM347 929c-8 0 -15 -3 -21 -9
s-9 -13 -9 -21c0 -8.66699 3 -16 9 -22s13 -9 21 -9c8.66699 0 16 3 22 9s9 13.333 9 22c0 8 -3 15 -9 21s-13.333 9 -22 9zM543 0l-63 159h-264l-63 -159h-128l323 776l322 -776h-127zM258 263h180l-90 226z" />
    <glyph glyph-name="ae" unicode="&#xe6;" horiz-adv-x="949" 
d="M626 105h298v-105h-382h1l-63 159h-264l-63 -159h-128l323 776l14 -34h299v-104h-256l82 -198h245v-105h-202zM258 263h180l-90 226z" />
    <glyph glyph-name="ccedilla" unicode="&#xe7;" horiz-adv-x="677" 
d="M598 191c8.66699 8.66699 17.0029 18.0029 25.0029 28.0029v-158c-20.667 -13.333 -40.667 -24 -60 -32c-42 -17.333 -85 -27 -129 -29l-26 -36c12 -6.66699 20.333 -12.334 25 -17.001c18 -14 29.667 -33 35 -57c3.33301 -18 1.33301 -35.5 -6 -52.5
s-19 -30.5 -35 -40.5s-35 -15 -57 -15c-6 0 -14.333 0.666992 -25 2c-34 6.66699 -68 23 -102 49l-8 6l40 52l8 -6c27.333 -20 51.666 -32 72.999 -36c3.33301 -0.666992 8 -1 14 -1c9.33301 0 16.666 1.66699 21.999 5c9.33301 6 13 14.333 11 25
c-0.666992 6 -5 12.333 -13 19c-9.33301 8 -22.666 13.667 -39.999 17l-52 9l59 82c-29.333 5.33301 -57 13.333 -83 24c-44 18.667 -83.333 45.334 -118 80.001s-61.334 74 -80.001 118c-19.333 46 -29 94 -29 144s9.66699 98.333 29 145c19.333 44.667 46 84 80 118
c35.333 35.333 74.666 61.666 117.999 78.999c43.333 19.333 91.333 29 144 29c52 0 100.333 -9.66699 145 -29c1.33301 -0.666992 4 -1.83398 8 -3.50098s6.66699 -2.83398 8 -3.50098v-137c-46 38 -99.667 57 -161 57c-71.333 0 -131.333 -25 -180 -75
c-50 -50 -75 -110 -75 -180s25 -130 75 -180s110 -75 180 -75s130 25 180 75z" />
    <glyph glyph-name="egrave" unicode="&#xe8;" horiz-adv-x="582" 
d="M194 638h329v104h-330h-115v-742h115h330v105h-329v230h271v105h-271v198zM399 822h-70l-105 117h105z" />
    <glyph glyph-name="eacute" unicode="&#xe9;" horiz-adv-x="582" 
d="M194 638v-198h271v-105h-271v-230h329v-105h-330h-115v742h115h330v-104h-329zM224 822l70 117h105l-105 -117h-70z" />
    <glyph glyph-name="ecircumflex" unicode="&#xea;" horiz-adv-x="582" 
d="M194 638v-198h271v-105h-271v-230h329v-105h-330h-115v742h115h330v-104h-329zM402 852l-40 -34l-60 71l-63 -71l-39 35l104 116z" />
    <glyph glyph-name="edieresis" unicode="&#xeb;" horiz-adv-x="582" 
d="M194 638v-198h271v-105h-271v-230h329v-105h-330h-115v742h115h330v-104h-329zM278 888c0 -14 -5 -26 -15 -36s-22 -15 -36 -15s-26 5 -36 15s-15 22 -15 36s5 26 15 36s22 15 36 15s26 -5 36 -15s15 -22 15 -36zM425 888c0 -14 -5 -26 -15 -36s-22 -15 -36 -15
s-26 5 -36 15s-15 22 -15 36s5 26 15 36s22 15 36 15s26 -5 36 -15s15 -22 15 -36z" />
    <glyph glyph-name="igrave" unicode="&#xec;" horiz-adv-x="285" 
d="M201 0v742h-116v-742h116zM190 822h-69l-105 117h105z" />
    <glyph glyph-name="iacute" unicode="&#xed;" horiz-adv-x="285" 
d="M84 0v742h116v-742h-116zM95 822l70 117h104l-104 -117h-70z" />
    <glyph glyph-name="icircumflex" unicode="&#xee;" horiz-adv-x="272" 
d="M79 0v742h116v-742h-116zM238 852l-40 -34l-59 71l-64 -71l-39 35l104 116z" />
    <glyph glyph-name="idieresis" unicode="&#xef;" horiz-adv-x="272" 
d="M79 0v742h116v-742h-116zM115 888c0 -14 -5 -26 -15 -36s-22 -15 -36 -15c-14.667 0 -27 5 -37 15s-15 22 -15 36s5 26 15 36s22.333 15 37 15c14 0 26 -5 36 -15s15 -22 15 -36zM262 888c0 -14 -5 -26 -15 -36s-22 -15 -36 -15c-14.667 0 -27 5 -37 15s-15 22 -15 36
s5 26 15 36s22.333 15 37 15c14 0 26 -5 36 -15s15 -22 15 -36z" />
    <glyph glyph-name="eth" unicode="&#xf0;" horiz-adv-x="742" 
d="M602 631c60 -66 90 -152.667 90 -260s-30 -194 -90 -260c-32.667 -36.667 -72.334 -64 -119.001 -82c-48.667 -19.333 -102.667 -29 -162 -29h-137h-39v321h-67v100h67v321h116h60c61.333 0 115.333 -9.66699 162 -29c46.667 -18 86.334 -45.333 119.001 -82zM516 189
c40 44 60 104.667 60 182s-20 138 -60 182c-44 48.667 -109 73 -195 73h-60v-205h124v-100h-124v-205h60c85.333 0 150.333 24.333 195 73z" />
    <glyph glyph-name="ntilde" unicode="&#xf1;" horiz-adv-x="738" 
d="M503 914l-0.00195312 -13c0 -14 -3 -26.333 -9 -37c-5.33301 -10 -13.666 -18.667 -24.999 -26c-13.333 -8.66699 -29.666 -13 -48.999 -13s-39 4.66699 -59 14c-11.333 6 -23.666 9 -36.999 9c-11.333 0 -20 -2 -26 -6c-5.33301 -3.33301 -8 -8 -8 -14v-12h-55v12
c0 12 3.33301 24 10 36c6 10 14 18 24 24c14.667 10 33 15 55 15h1c21.333 -1.33301 41.333 -6.33301 60 -15c11.333 -6 22.666 -9 33.999 -9c8.66699 0 15.667 1.66699 21 5c6 4 9 9.66699 9 17v13h54zM660.998 -34l-467 511v-477h-116v777l466 -511v476h117v-776z" />
    <glyph glyph-name="ograve" unicode="&#xf2;" horiz-adv-x="849" 
d="M425 0c50 0 98.333 9.66699 145 29c42.667 18.667 82 45.334 118 80.001c33.333 34 59.666 73.333 78.999 118c19.333 46 29 94 29 144s-9.66699 98.333 -29 145c-19.333 44 -45.666 83.333 -78.999 118c-34.667 33.333 -74 59.666 -118 78.999
c-46.667 19.333 -95 29 -145 29s-98 -9.66699 -144 -29c-44.667 -19.333 -84 -45.666 -118 -78.999c-34.667 -36 -61.334 -75.333 -80.001 -118c-19.333 -46.667 -29 -95 -29 -145s9.66699 -98 29 -144c18.667 -44 45.334 -83.333 80.001 -118s74 -61.334 118 -80.001
c46 -19.333 94 -29 144 -29zM425 626c70 0 130 -25 180 -75s75 -110 75 -180s-25 -130 -75 -180s-110 -75 -180 -75s-130 25 -180 75s-75 110 -75 180s25 130 75 180s110 75 180 75zM462 822h-69l-105 117h105z" />
    <glyph glyph-name="oacute" unicode="&#xf3;" horiz-adv-x="849" 
d="M425 0c-50 0 -98 9.66699 -144 29c-44 18.667 -83.333 45.334 -118 80.001s-61.334 74 -80.001 118c-19.333 46 -29 94 -29 144s9.66699 98.333 29 145c18.667 42.667 45.334 82 80.001 118c34 33.333 73.333 59.666 118 78.999c46 19.333 94 29 144 29
s98.333 -9.66699 145 -29c44 -19.333 83.333 -45.666 118 -78.999c33.333 -34.667 59.666 -74 78.999 -118c19.333 -46.667 29 -95 29 -145s-9.66699 -98 -29 -144c-19.333 -44.667 -45.666 -84 -78.999 -118c-36 -34.667 -75.333 -61.334 -118 -80.001
c-46.667 -19.333 -95 -29 -145 -29zM425 626c-70 0 -130 -25 -180 -75s-75 -110 -75 -180s25 -130 75 -180s110 -75 180 -75s130 25 180 75s75 110 75 180s-25 130 -75 180s-110 75 -180 75zM393 822l70 117h104l-104 -117h-70z" />
    <glyph glyph-name="ocircumflex" unicode="&#xf4;" horiz-adv-x="849" 
d="M425 0c-50 0 -98 9.66699 -144 29c-44 18.667 -83.333 45.334 -118 80.001s-61.334 74 -80.001 118c-19.333 46 -29 94 -29 144s9.66699 98.333 29 145c18.667 42.667 45.334 82 80.001 118c34 33.333 73.333 59.666 118 78.999c46 19.333 94 29 144 29
s98.333 -9.66699 145 -29c44 -19.333 83.333 -45.666 118 -78.999c33.333 -34.667 59.666 -74 78.999 -118c19.333 -46.667 29 -95 29 -145s-9.66699 -98 -29 -144c-19.333 -44.667 -45.666 -84 -78.999 -118c-36 -34.667 -75.333 -61.334 -118 -80.001
c-46.667 -19.333 -95 -29 -145 -29zM425 626c-70 0 -130 -25 -180 -75s-75 -110 -75 -180s25 -130 75 -180s110 -75 180 -75s130 25 180 75s75 110 75 180s-25 130 -75 180s-110 75 -180 75zM526 852l-40 -34l-59 71l-64 -71l-39 35l104 116z" />
    <glyph glyph-name="otilde" unicode="&#xf5;" horiz-adv-x="849" 
d="M425 0c-50 0 -98 9.66699 -144 29c-44 18.667 -83.333 45.334 -118 80.001s-61.334 74 -80.001 118c-19.333 46 -29 94 -29 144s9.66699 98.333 29 145c18.667 42.667 45.334 82 80.001 118c34 33.333 73.333 59.666 118 78.999c46 19.333 94 29 144 29
s98.333 -9.66699 145 -29c44 -19.333 83.333 -45.666 118 -78.999c33.333 -34.667 59.666 -74 78.999 -118c19.333 -46.667 29 -95 29 -145s-9.66699 -98 -29 -144c-19.333 -44.667 -45.666 -84 -78.999 -118c-36 -34.667 -75.333 -61.334 -118 -80.001
c-46.667 -19.333 -95 -29 -145 -29zM425 626c-70 0 -130 -25 -180 -75s-75 -110 -75 -180s25 -130 75 -180s110 -75 180 -75s130 25 180 75s75 110 75 180s-25 130 -75 180s-110 75 -180 75zM559 914l-0.00195312 -13c0 -14 -3 -26.333 -9 -37
c-5.33301 -9.33301 -13.666 -18 -24.999 -26c-13.333 -8.66699 -30 -13 -50 -13c-18.667 0 -38 4.66699 -58 14c-11.333 6 -23.666 9 -36.999 9c-11.333 0 -20 -2 -26 -6c-5.33301 -3.33301 -8 -8 -8 -14v-12h-55v12c0 13.333 3.33301 25.333 10 36
c4.66699 9.33301 12.667 17.333 24 24c14.667 10 33 15 55 15h1c21.333 -1.33301 41.333 -6.33301 60 -15c10.667 -6 22 -9 34 -9c8.66699 0 15.667 1.66699 21 5c6 4 9 9.66699 9 17v13h54z" />
    <glyph glyph-name="odieresis" unicode="&#xf6;" horiz-adv-x="849" 
d="M425 0c-50 0 -98 9.66699 -144 29c-44 18.667 -83.333 45.334 -118 80.001s-61.334 74 -80.001 118c-19.333 46 -29 94 -29 144s9.66699 98.333 29 145c18.667 42.667 45.334 82 80.001 118c34 33.333 73.333 59.666 118 78.999c46 19.333 94 29 144 29
s98.333 -9.66699 145 -29c44 -19.333 83.333 -45.666 118 -78.999c33.333 -34.667 59.666 -74 78.999 -118c19.333 -46.667 29 -95 29 -145s-9.66699 -98 -29 -144c-19.333 -44.667 -45.666 -84 -78.999 -118c-36 -34.667 -75.333 -61.334 -118 -80.001
c-46.667 -19.333 -95 -29 -145 -29zM425 626c-70 0 -130 -25 -180 -75s-75 -110 -75 -180s25 -130 75 -180s110 -75 180 -75s130 25 180 75s75 110 75 180s-25 130 -75 180s-110 75 -180 75zM403 888c0 -14 -5 -26 -15 -36s-22 -15 -36 -15c-14.667 0 -27 5 -37 15
s-15 22 -15 36s5 26 15 36s22.333 15 37 15c14 0 26 -5 36 -15s15 -22 15 -36zM550 888c0 -14 -5 -26 -15 -36s-22 -15 -36 -15c-14.667 0 -27 5 -37 15s-15 22 -15 36s5 26 15 36s22.333 15 37 15c14 0 26 -5 36 -15s15 -22 15 -36z" />
    <glyph glyph-name="divide" unicode="&#xf7;" horiz-adv-x="630" 
d="M617 325h-603v92h603v-92zM385 191c0 -19.333 -6.83301 -35.833 -20.5 -49.5s-30.167 -20.5 -49.5 -20.5s-35.833 6.83301 -49.5 20.5s-20.5 30.167 -20.5 49.5s6.83301 35.833 20.5 49.5s30.167 20.5 49.5 20.5s35.833 -6.83301 49.5 -20.5s20.5 -30.167 20.5 -49.5z
M385 551c0 -19.333 -6.83301 -35.833 -20.5 -49.5s-30.167 -20.5 -49.5 -20.5s-35.833 6.83301 -49.5 20.5s-20.5 30.167 -20.5 49.5s6.83301 35.833 20.5 49.5s30.167 20.5 49.5 20.5s35.833 -6.83301 49.5 -20.5s20.5 -30.167 20.5 -49.5z" />
    <glyph glyph-name="oslash" unicode="&#xf8;" horiz-adv-x="847" 
d="M766 516c19.333 -46.667 29.001 -94.9951 29.001 -144.995s-9.66699 -98 -29 -144c-18.667 -44.667 -45 -84 -79 -118c-36 -34.667 -75.333 -61.334 -118 -80.001c-46.667 -19.333 -95 -29 -145 -29c-43.333 0 -86 7.66699 -128 23c-2 0.666992 -4.83301 1.66699 -8.5 3
s-6.16699 2.33301 -7.5 3c-17.333 8 -29.666 14 -36.999 18l-67 -90h-116l108 146l-6 6c-34.667 34.667 -61.334 74 -80.001 118c-19.333 46 -29 94 -29 144s9.66699 98.333 29 145c18.667 42.667 45.334 82 80.001 118c33.333 33.333 72.666 59.666 117.999 78.999
c46 19.333 94 29 144 29c45.333 0 88 -7.33301 128 -22c2 -0.666992 4.83301 -1.83398 8.5 -3.50098s6.5 -2.83398 8.5 -3.50098c14 -6 26.333 -12 37 -18l66 90h116l-107 -146c2.66699 -2.66699 4.66699 -4.33398 6 -5.00098c33.333 -34.667 59.666 -74 78.999 -118z
M169.001 371.005c0 -66.667 22.999 -124.667 68.999 -174l298 403c-17.333 8 -30.666 13.333 -39.999 16c-25.333 6.66699 -49.333 10 -72 10c-70 0 -130 -25 -180 -75s-75 -110 -75 -180zM604 191.005c50 50 75.001 110 75.001 180c0 66.667 -22.667 124.667 -68 174
l-299 -403c13.333 -6 26.666 -11 39.999 -15c24 -7.33301 48 -11 72 -11c70 0 130 25 180 75z" />
    <glyph glyph-name="ugrave" unicode="&#xf9;" horiz-adv-x="691" 
d="M346 0c72 0 133.334 19.667 184.001 59c28 22 50 48.667 66 80c16.667 35.333 25 73 25 113v490h-117v-490c0 -44 -15 -77.667 -45 -101c-30.667 -23.333 -68.334 -35 -113.001 -35c-45.333 0 -83 11.667 -113 35c-30.667 23.333 -46 57 -46 101v490h-116v-490
c0 -42 8.33301 -79.667 25 -113c15.333 -31.333 37.333 -58 66 -80c50.667 -39.333 112 -59 184 -59zM433.001 822h-70l-104 117h104z" />
    <glyph glyph-name="uacute" unicode="&#xfa;" horiz-adv-x="691" 
d="M346 0c-72 0 -133.334 19.667 -184.001 59c-28.667 22 -50.667 48.667 -66 80c-16.667 33.333 -25 71 -25 113v490h116v-490c0 -44 15.333 -77.667 46 -101c30 -23.333 67.667 -35 113 -35c44.667 0 82.334 11.667 113.001 35c30 23.333 45 57 45 101v490h117v-490
c0 -40 -8.33301 -77.667 -25 -113c-16 -31.333 -38 -58 -66 -80c-50.667 -39.333 -112 -59 -184 -59zM258.999 822l69 117h105l-105 -117h-69z" />
    <glyph glyph-name="ucircumflex" unicode="&#xfb;" horiz-adv-x="691" 
d="M346 0c-72 0 -133.334 19.667 -184.001 59c-28.667 22 -50.667 48.667 -66 80c-16.667 33.333 -25 71 -25 113v490h116v-490c0 -44 15.333 -77.667 46 -101c30 -23.333 67.667 -35 113 -35c44.667 0 82.334 11.667 113.001 35c30 23.333 45 57 45 101v490h117v-490
c0 -40 -8.33301 -77.667 -25 -113c-16 -31.333 -38 -58 -66 -80c-50.667 -39.333 -112 -59 -184 -59zM446.999 852l-40 -34l-59 71l-64 -71l-39 35l104 116z" />
    <glyph glyph-name="udieresis" unicode="&#xfc;" horiz-adv-x="691" 
d="M346 0c-72 0 -133.334 19.667 -184.001 59c-28.667 22 -50.667 48.667 -66 80c-16.667 33.333 -25 71 -25 113v490h116v-490c0 -44 15.333 -77.667 46 -101c30 -23.333 67.667 -35 113 -35c44.667 0 82.334 11.667 113.001 35c30 23.333 45 57 45 101v490h117v-490
c0 -40 -8.33301 -77.667 -25 -113c-16 -31.333 -38 -58 -66 -80c-50.667 -39.333 -112 -59 -184 -59zM322.999 888c0 -14 -5 -26 -15 -36s-22 -15 -36 -15s-26 5 -36 15s-15 22 -15 36s5 26 15 36s22 15 36 15s26 -5 36 -15s15 -22 15 -36zM469.999 888
c0 -14 -5 -26 -15 -36s-22 -15 -36 -15s-26 5 -36 15s-15 22 -15 36s5 26 15 36s22 15 36 15s26 -5 36 -15s15 -22 15 -36z" />
    <glyph glyph-name="yacute" unicode="&#xfd;" horiz-adv-x="688" 
d="M663 742l-260 -354v-388h-116v388l-261 354h125l194 -264l194 264h124zM279 822l70 117h104l-104 -117h-70z" />
    <glyph glyph-name="thorn" unicode="&#xfe;" horiz-adv-x="568" 
d="M488 576c40 -45.333 59.999 -102.667 59.999 -172c0 -70.667 -20 -128 -60 -172c-43.333 -49.333 -105 -74 -185 -74h-109v-158h-116v742h116v-92h109c78.667 0 140.334 -24.667 185.001 -74zM410.999 301.999c22 24.667 33 58.666 33 101.999
c0 42.667 -11 76.334 -33 101.001c-24 26.667 -60 40 -108 40h-109v-282h109c48 0 84 13 108 39z" />
    <glyph glyph-name="ydieresis" unicode="&#xff;" horiz-adv-x="688" 
d="M663 742l-260 -354v-388h-116v388l-261 354h125l194 -264l194 264h124zM322 888c0 -14 -5 -26 -15 -36s-22 -15 -36 -15s-26 5 -36 15s-15 22 -15 36s5 26 15 36s22 15 36 15s26 -5 36 -15s15 -22 15 -36zM469 888c0 -14 -5 -26 -15 -36s-22 -15 -36 -15s-26 5 -36 15
s-15 22 -15 36s5 26 15 36s22 15 36 15s26 -5 36 -15s15 -22 15 -36z" />
    <glyph glyph-name="dotlessi" unicode="&#x131;" horiz-adv-x="270" 
d="M194 0h-116v533h116v-533z" />
    <glyph glyph-name="Lslash" unicode="&#x141;" horiz-adv-x="580" 
d="M564 105v-105h-311h-115v288l-97 -54v100l97 54v354h116v-290l150 82v-100l-150 -82v-247h310z" />
    <glyph glyph-name="lslash" unicode="&#x142;" horiz-adv-x="580" 
d="M564 105v-105h-311h-115v288l-97 -54v100l97 54v354h116v-290l150 82v-100l-150 -82v-247h310z" />
    <glyph glyph-name="OE" unicode="&#x152;" horiz-adv-x="1214" 
d="M1155 638h-329v-198h271v-105h-271v-230h329v-105h-330h-115v101c-33.333 -31.333 -70 -55.333 -110 -72c-46.667 -19.333 -95 -29 -145 -29s-98 9.66699 -144 29c-44 18.667 -83.333 45.334 -118 80.001s-61.334 74 -80.001 118c-19.333 46 -29 94 -29 144
s9.66699 98.333 29 145c18.667 42.667 45.334 82 80.001 118c34 33.333 73.333 59.666 118 78.999c46 19.333 94 29 144 29s98.333 -9.66699 145 -29c40 -16.667 76.667 -40.667 110 -72v101h115h330v-104zM635 191c50 50 75 110 75 180s-25 130 -75 180s-110 75 -180 75
s-130 -25 -180 -75s-75 -110 -75 -180s25 -130 75 -180s110 -75 180 -75s130 25 180 75z" />
    <glyph glyph-name="oe" unicode="&#x153;" horiz-adv-x="1201" 
d="M1131 638h-329v-198h271v-105h-271v-230h329v-105h-330h-115v101c-33.333 -31.333 -70 -55.333 -110 -72c-46.667 -19.333 -95 -29 -145 -29s-98 9.66699 -144 29c-44 18.667 -83.333 45.334 -118 80.001s-61.334 74 -80.001 118c-19.333 46 -29 94 -29 144
s9.66699 98.333 29 145c18.667 42.667 45.334 82 80.001 118c34 33.333 73.333 59.666 118 78.999c46 19.333 94 29 144 29s98.333 -9.66699 145 -29c40 -16.667 76.667 -40.667 110 -72v101h115h330v-104zM611 191c50 50 75 110 75 180s-25 130 -75 180s-110 75 -180 75
s-130 -25 -180 -75s-75 -110 -75 -180s25 -130 75 -180s110 -75 180 -75s130 25 180 75z" />
    <glyph glyph-name="Scaron" unicode="&#x160;" horiz-adv-x="528" 
d="M364 935l-98 -117l-104 116l39 35l64 -71l59 70zM469 253c11.333 -35.333 12 -69.998 2 -103.998c-10.667 -36 -31 -67.167 -61 -93.5s-65.333 -43.5 -106 -51.5c-13.333 -2.66699 -28.333 -4 -45 -4c-31.333 0 -60.666 5.33301 -87.999 16c-48 19.333 -89 51 -123 95
l92 72c21.333 -28.667 45.666 -48 72.999 -58c22.667 -9.33301 45.334 -11.333 68.001 -6c18.667 3.33301 35.167 10.666 49.5 21.999s23.833 24.666 28.5 39.999c8 26.667 -3.33301 54.667 -34 84l-91 88l-91 86c-28 26.667 -47 56.334 -57 89.001
c-10.667 32.667 -11.334 64 -2.00098 94c8.66699 32 27 59.667 55 83c26 22 55.667 36 89 42c36 8 72.667 5.33301 110 -8c38.667 -15.333 72.334 -40.333 101.001 -75l-91 -73c-28.667 34.667 -61.334 48.667 -98.001 42c-13.333 -2.66699 -25 -7.83398 -35 -15.501
s-16.333 -16.834 -19 -27.501c-6 -20.667 3.33301 -43 28 -67l124 -119l56 -54c32 -29.333 53.667 -61.666 65 -96.999z" />
    <glyph glyph-name="scaron" unicode="&#x161;" horiz-adv-x="528" 
d="M364 935l-98 -117l-104 116l39 35l64 -71l59 70zM469 253c11.333 -35.333 12 -69.998 2 -103.998c-10.667 -36 -31 -67.167 -61 -93.5s-65.333 -43.5 -106 -51.5c-13.333 -2.66699 -28.333 -4 -45 -4c-31.333 0 -60.666 5.33301 -87.999 16c-48 19.333 -89 51 -123 95
l92 72c21.333 -28.667 45.666 -48 72.999 -58c22.667 -9.33301 45.334 -11.333 68.001 -6c18.667 3.33301 35.167 10.666 49.5 21.999s23.833 24.666 28.5 39.999c8 26.667 -3.33301 54.667 -34 84l-91 88l-91 86c-28 26.667 -47 56.334 -57 89.001
c-10.667 32.667 -11.334 64 -2.00098 94c8.66699 32 27 59.667 55 83c26 22 55.667 36 89 42c36 8 72.667 5.33301 110 -8c38.667 -15.333 72.334 -40.333 101.001 -75l-91 -73c-28.667 34.667 -61.334 48.667 -98.001 42c-13.333 -2.66699 -25 -7.83398 -35 -15.501
s-16.333 -16.834 -19 -27.501c-6 -20.667 3.33301 -43 28 -67l124 -119l56 -54c32 -29.333 53.667 -61.666 65 -96.999z" />
    <glyph glyph-name="Ydieresis" unicode="&#x178;" horiz-adv-x="688" 
d="M663 742l-260 -354v-388h-116v388l-261 354h125l194 -264l194 264h124zM322 888c0 -14 -5 -26 -15 -36s-22 -15 -36 -15s-26 5 -36 15s-15 22 -15 36s5 26 15 36s22 15 36 15s26 -5 36 -15s15 -22 15 -36zM469 888c0 -14 -5 -26 -15 -36s-22 -15 -36 -15s-26 5 -36 15
s-15 22 -15 36s5 26 15 36s22 15 36 15s26 -5 36 -15s15 -22 15 -36z" />
    <glyph glyph-name="Zcaron" unicode="&#x17d;" horiz-adv-x="705" 
d="M446 935l-98 -117l-104 116l39 35l64 -71l59 70zM629 0v116h-371l381 626h-505v-116h298l-381 -626h578z" />
    <glyph glyph-name="zcaron" unicode="&#x17e;" horiz-adv-x="705" 
d="M446 935l-98 -117l-104 116l39 35l64 -71l59 70zM629 0v116h-371l381 626h-505v-116h298l-381 -626h578z" />
    <glyph glyph-name="florin" unicode="&#x192;" horiz-adv-x="526" 
d="M338 470l128.999 0.000976562l-13 -91h-129l-48 -346c-10 -70 -38 -121.333 -84 -154c-31.333 -21.333 -67.333 -32 -108 -32c-24 0 -48 3.33301 -72 10l38 97c42 -10.667 72.333 -9.33398 91 3.99902c18 12.667 29.667 37.667 35 75l48 346h-85l13 91h85l16 115
c10 69.333 38 120.333 84 153c48 34 106.333 37.333 175 10l-33 -84c-41.333 10 -71.666 8.66699 -90.999 -4c-18 -13.333 -29.667 -38.333 -35 -75z" />
    <glyph glyph-name="circumflex" unicode="&#x2c6;" horiz-adv-x="264" 
d="M232 626l-40 -34l-59 70l-64 -70l-39 35l104 115z" />
    <glyph glyph-name="caron" unicode="&#x2c7;" horiz-adv-x="263" 
d="M232 708l-98 -116l-104 115l39 35l64 -71l59 71z" />
    <glyph glyph-name="breve" unicode="&#x2d8;" horiz-adv-x="383" 
d="M47 688l64 -4.99902c6 -12 12.333 -21 19 -27c9.33301 -9.33301 18.333 -15.666 27 -18.999c12.667 -4.66699 24 -7 34 -7s21.333 2.33301 34 7c8.66699 3.33301 17.667 9.66602 27 18.999c6.66699 6 13 15 19 27l64 5c-2 -10 -5 -19 -9 -27
c-2.66699 -7.33301 -7 -16 -13 -26c-4.66699 -7.33301 -10.667 -14.666 -18 -21.999c-6.66699 -6.66699 -14.334 -12.667 -23.001 -18c-6 -4.66699 -14.333 -9.33398 -25 -14.001c-6 -2.66699 -15 -5.33398 -27 -8.00098c-10 -2 -19.667 -3 -29 -3c-10 0 -19.667 1 -29 3
c-13.333 2.66699 -22.333 5.33398 -27 8.00098c-12 5.33301 -20.667 10 -26 14c-9.33301 6.66699 -16.666 12.667 -21.999 18c-7.33301 7.33301 -13.333 14.666 -18 21.999c-4 5.33301 -8.66699 14 -14 26c-4 10 -6.66699 19 -8 27z" />
    <glyph glyph-name="dotaccent" unicode="&#x2d9;" horiz-adv-x="248" 
d="M194 603c0 -19.333 -6.83301 -35.833 -20.5 -49.5s-30.167 -20.5 -49.5 -20.5s-35.833 6.83301 -49.5 20.5s-20.5 30.167 -20.5 49.5s6.83301 35.833 20.5 49.5s30.167 20.5 49.5 20.5c18.667 0 35 -6.83301 49 -20.5s21 -30.167 21 -49.5z" />
    <glyph glyph-name="ring" unicode="&#x2da;" horiz-adv-x="260" 
d="M131 589c-21.333 0 -39.5 7.5 -54.5 22.5s-22.5 33.167 -22.5 54.5s7.5 39.333 22.5 54s33.167 22 54.5 22c20.667 0 38.5 -7.33301 53.5 -22s22.5 -32.667 22.5 -54s-7.33301 -39.5 -22 -54.5s-32.667 -22.5 -54 -22.5zM131 696c-8.66699 0 -16 -3 -22 -9s-9 -13 -9 -21
c0 -8.66699 3 -16 9 -22s13.333 -9 22 -9c8 0 15 3 21 9s9 13.333 9 22c0 8 -3 15 -9 21s-13 9 -21 9z" />
    <glyph glyph-name="ogonek" unicode="&#x2db;" horiz-adv-x="279" 
d="M180 -133l42.002 -53.999l-12 -9c-14.667 -12 -31.667 -19 -51 -21c-2.66699 -0.666992 -7 -1 -13 -1c-12.667 0 -25.334 2.66699 -38.001 8c-34 14.667 -52.667 40.667 -56 78c-2 26.667 6 54 24 82c10.667 15.333 24.667 30.666 42 45.999l4 4h119l-41 -27
c-30.667 -20.667 -52.667 -41 -66 -61c-10 -14 -14.333 -27 -13 -39c0 -9.33301 4.66699 -16 14 -20c4 -2 7.66699 -3 11 -3c7.33301 0 14.666 2.66699 21.999 8z" />
    <glyph glyph-name="tilde" unicode="&#x2dc;" horiz-adv-x="373" 
d="M320 742l0.00195312 -12c0 -13.333 -3 -25.666 -9 -36.999c-6 -10.667 -14.333 -19.334 -25 -26.001c-14.667 -9.33301 -31.334 -14 -50.001 -14c-20 0 -39.667 5 -59 15c-12 6 -24.333 9 -37 9c-10.667 0 -19.334 -2 -26.001 -6c-5.33301 -4 -8 -8.66699 -8 -14v-12h-54
v12c0 13.333 3 25 9 35c6.66699 11.333 15 19.666 25 24.999c15.333 9.33301 33.333 14 54 14h2c20 0 40 -4.66699 60 -14c10.667 -6 22 -9 34 -9c8.66699 0 15.667 1.66699 21 5c5.33301 2.66699 8 8.33398 8 17.001v12h55z" />
    <glyph glyph-name="hungarumlaut" unicode="&#x2dd;" horiz-adv-x="420" 
d="M60 619l49 123h110l-86 -123h-73zM215 619l49 123h111l-86 -123h-74z" />
    <glyph glyph-name="endash" unicode="&#x2013;" horiz-adv-x="548" 
d="M471 321h-393v100h393v-100z" />
    <glyph glyph-name="emdash" unicode="&#x2014;" horiz-adv-x="837" 
d="M759 321h-681v100h681v-100z" />
    <glyph glyph-name="quoteleft" unicode="&#x2018;" horiz-adv-x="284" 
d="M79 674c0 19.333 6.83301 35.8311 20.5 49.498s30.167 20.5 49.5 20.5s35.833 -7 49.5 -21s20.5 -30.333 20.5 -49s-6.5 -34.667 -19.5 -48s-28.833 -20.666 -47.5 -21.999l24 -107h-40l-52 151c-3.33301 8.66699 -5 17.334 -5 26.001z" />
    <glyph glyph-name="quoteright" unicode="&#x2019;" horiz-adv-x="284" 
d="M205 674c0 -8.66699 -1.66602 -17.335 -4.99902 -26.002l-53 -151h-40l24 107c-18.667 0.666992 -34.334 7.83398 -47.001 21.501s-19 29.834 -19 48.501c0 19.333 6.83301 35.833 20.5 49.5s30.167 20.5 49.5 20.5s35.833 -7 49.5 -21s20.5 -30.333 20.5 -49z" />
    <glyph glyph-name="quotesinglbase" unicode="&#x201a;" horiz-adv-x="283" 
d="M204 70c0 -8.66699 -1.66602 -17.3301 -4.99902 -25.9971l-53 -151h-40l24 107c-18.667 1.33301 -34.334 8.66602 -47.001 21.999s-19 29.333 -19 48c0 19.333 6.83301 35.666 20.5 48.999s30.167 20 49.5 20s35.833 -6.83301 49.5 -20.5s20.5 -29.834 20.5 -48.501z" />
    <glyph glyph-name="quotedblleft" unicode="&#x201c;" horiz-adv-x="439" 
d="M234 674c0 19.333 6.83301 35.8311 20.5 49.498s30.167 20.5 49.5 20.5c18.667 0 35 -7 49 -21s21 -30.333 21 -49s-6.5 -34.667 -19.5 -48s-28.833 -20.666 -47.5 -21.999l24 -107h-40l-52 151c-3.33301 8.66699 -5 17.334 -5 26.001zM79 673.998
c0 19.333 6.83301 35.8311 20.5 49.498s30.167 20.5 49.5 20.5s35.833 -7 49.5 -21s20.5 -30.333 20.5 -49s-6.5 -34.667 -19.5 -48s-28.833 -20.666 -47.5 -21.999l24 -107h-40l-52 151c-3.33301 8.66699 -5 17.334 -5 26.001z" />
    <glyph glyph-name="quotedblright" unicode="&#x201d;" horiz-adv-x="439" 
d="M205 674c0 -8.66699 -1.66602 -17.335 -4.99902 -26.002l-53 -151h-40l24 107c-18.667 0.666992 -34.334 7.83398 -47.001 21.501s-19 29.834 -19 48.501c0 19.333 6.83301 35.833 20.5 49.5s30.167 20.5 49.5 20.5s35.833 -7 49.5 -21s20.5 -30.333 20.5 -49z
M360.001 673.999c0 -8.66699 -1.66602 -17.335 -4.99902 -26.002l-53 -151h-40l24 107c-18.667 0.666992 -34.334 7.83398 -47.001 21.501s-19 29.834 -19 48.501c0 19.333 6.83301 35.833 20.5 49.5s30.167 20.5 49.5 20.5c18.667 0 35 -7 49 -21s21 -30.333 21 -49z" />
    <glyph glyph-name="quotedblbase" unicode="&#x201e;" horiz-adv-x="438" 
d="M204 70c0 -8.66699 -1.66602 -17.3301 -4.99902 -25.9971l-53 -151h-40l24 107c-18.667 1.33301 -34.334 8.66602 -47.001 21.999s-19 29.333 -19 48c0 19.333 6.83301 35.666 20.5 48.999s30.167 20 49.5 20s35.833 -6.83301 49.5 -20.5s20.5 -29.834 20.5 -48.501z
M359.001 70.0039c0 -8.66699 -1.66602 -17.3301 -4.99902 -25.9971l-53 -151h-40l24 107c-18.667 1.33301 -34.334 8.66602 -47.001 21.999s-19 29.333 -19 48c0 19.333 6.83301 35.666 20.5 48.999s30.167 20 49.5 20s35.833 -6.83301 49.5 -20.5
s20.5 -29.834 20.5 -48.501z" />
    <glyph glyph-name="dagger" unicode="&#x2020;" horiz-adv-x="444" 
d="M433 601v-90h-161v-655h-100v655h-161v90h161v181h100v-181h161z" />
    <glyph glyph-name="daggerdbl" unicode="&#x2021;" horiz-adv-x="453" 
d="M277 511v-293h161v-90h-161v-272h-100v272h-161v90h161v293h-161v90h161v181h100v-181h161v-90h-161z" />
    <glyph glyph-name="bullet" unicode="&#x2022;" horiz-adv-x="307" 
d="M254 371c0 -27.333 -9.83301 -50.833 -29.5 -70.5s-43.167 -29.5 -70.5 -29.5s-50.833 9.83301 -70.5 29.5s-29.5 43.167 -29.5 70.5s9.83301 50.833 29.5 70.5s43.167 29.5 70.5 29.5s50.833 -9.83301 70.5 -29.5s29.5 -43.167 29.5 -70.5z" />
    <glyph glyph-name="ellipsis" unicode="&#x2026;" horiz-adv-x="759" 
d="M212 70c0 -19.333 -6.83301 -35.833 -20.5 -49.5s-30.167 -20.5 -49.5 -20.5s-35.833 6.83301 -49.5 20.5s-20.5 30.167 -20.5 49.5s6.83301 35.833 20.5 49.5s30.167 20.5 49.5 20.5c18.667 0 35 -7 49 -21s21 -30.333 21 -49zM449 70
c0 -19.333 -6.83496 -35.833 -20.502 -49.5s-30.167 -20.5 -49.5 -20.5s-35.666 6.83301 -48.999 20.5s-20 30.167 -20 49.5s6.83301 35.833 20.5 49.5s29.834 20.5 48.501 20.5c19.333 0 35.833 -6.83301 49.5 -20.5s20.5 -30.167 20.5 -49.5zM686.998 70
c0 -19.333 -6.83301 -35.833 -20.5 -49.5s-30.167 -20.5 -49.5 -20.5s-35.833 6.83301 -49.5 20.5s-20.5 30.167 -20.5 49.5s6.83301 35.833 20.5 49.5s30.167 20.5 49.5 20.5s35.833 -7 49.5 -21s20.5 -30.333 20.5 -49z" />
    <glyph glyph-name="perthousand" unicode="&#x2030;" horiz-adv-x="981" 
d="M201 0h-96l405 742h96zM182 392c-20 0 -38.667 5.33301 -56 16c-14.667 9.33301 -27 23.333 -37 42c-15.333 29.333 -23 68.333 -23 117s7.66699 87.667 23 117c8.66699 17.333 21 31.333 37 42c15.333 10.667 34 16 56 16c21.333 0 40.333 -5.33301 57 -16
c15.333 -11.333 27.333 -25.333 36 -42c15.333 -28 23 -67 23 -117c0 -48.667 -7.66699 -87.667 -23 -117c-8.66699 -17.333 -21 -31.333 -37 -42c-17.333 -10.667 -36 -16 -56 -16zM182 687c-20 0 -34.667 -9.33496 -44 -28.002c-11.333 -21.333 -17 -52 -17 -92
c0 -39.333 5.66699 -69.666 17 -90.999c9.33301 -19.333 24 -29 44 -29c19.333 0 34.333 9.66699 45 29c10.667 20.667 16 51 16 91c0 40.667 -5.33301 71.334 -16 92.001c-10 18.667 -25 28 -45 28zM530 349.998c22 0 40.667 -5.33301 56 -16
c14.667 -9.33301 27 -23.333 37 -42c15.333 -29.333 23 -68.333 23 -117s-7.66699 -87.667 -23 -117c-8.66699 -17.333 -21 -31.333 -37 -42c-15.333 -10.667 -34 -16 -56 -16c-21.333 0 -40.333 5.33301 -57 16c-15.333 10 -27.333 24 -36 42c-15.333 28 -23 67 -23 117
s7.66699 89 23 117c8.66699 16.667 20.667 30.667 36 42c16.667 10.667 35.667 16 57 16zM530 54.998c19.333 0 34 9.33496 44 28.002c11.333 21.333 17 52 17 92s-5.66699 70.667 -17 92c-10 18.667 -24.667 28 -44 28s-34.333 -9.33301 -45 -28
c-10.667 -20.667 -16 -51.334 -16 -92.001s5.33301 -71.334 16 -92.001c10.667 -18.667 25.667 -28 45 -28zM829 350c22 0 40.667 -5.33301 56 -16c14.667 -9.33301 27 -23.333 37 -42c15.333 -29.333 23 -68.333 23 -117s-7.66699 -87.667 -23 -117
c-8.66699 -17.333 -21 -31.333 -37 -42c-15.333 -10.667 -34 -16 -56 -16c-21.333 -0 -40.333 5.33301 -57 16c-14.667 10 -26.667 24 -36 42c-15.333 28 -23 67 -23 117s7.66699 89 23 117c8.66699 16.667 20.667 30.667 36 42c16.667 10.667 35.667 16 57 16zM829 55
c19.333 0 34 9.33496 44 28.002c11.333 21.333 17 52 17 92s-5.66699 70.667 -17 92c-10 18.667 -24.667 28 -44 28s-34.333 -9.33301 -45 -28c-10.667 -20.667 -16 -51.334 -16 -92.001s5.33301 -71.334 16 -92.001c10.667 -18.667 25.667 -28 45 -28z" />
    <glyph glyph-name="guilsinglleft" unicode="&#x2039;" horiz-adv-x="363" 
d="M308 32h-115l-176 236l175 233h115l-175 -233z" />
    <glyph glyph-name="guilsinglright" unicode="&#x203a;" horiz-adv-x="363" 
d="M55 32l176 236l-176 233h115l176 -233l-176 -236h-115z" />
    <glyph glyph-name="fraction" unicode="&#x2044;" horiz-adv-x="364" 
d="M131 -97h-116l219 928h116z" />
    <glyph glyph-name="Euro" unicode="&#x20ac;" horiz-adv-x="661" 
d="M596 39c-49.333 -26 -101.666 -39.002 -156.999 -39.002c-48.667 0 -94.334 10 -137.001 30c-41.333 18.667 -78.333 45.334 -111 80.001c-38.667 41.333 -66.667 89.666 -84 144.999h-74v93h58c-0.666992 5.33301 -1 13 -1 23c0 10.667 0.333008 18.334 1 23.001h-58v93
h74c18 56.667 46 105 84 145c32.667 34.667 69.667 61.334 111 80.001c42.667 20 88.334 30 137.001 30c54.667 0 105.667 -12.333 153 -37l-53 -103c-32 16 -65.333 24 -100 24c-44.667 0 -85.334 -12.667 -122.001 -38s-65 -59 -85 -101h274v-93h-299
c0 -2 -0.166992 -5.66699 -0.5 -11s-0.5 -9.33301 -0.5 -12s0.166992 -6.5 0.5 -11.5s0.5 -8.83301 0.5 -11.5h299v-93h-274c20 -42 48.5 -75.667 85.5 -101s77.5 -38 121.5 -38c35.333 0 69.333 8.66699 102 26z" />
    <glyph glyph-name="trademark" unicode="&#x2122;" horiz-adv-x="832" 
d="M56 725v57h283v-57h-110v-343h-63v343h-110zM567 520l188 280v-418h-63v212l-125 -186l-125 186v-212h-63v418z" />
    <glyph glyph-name="minus" unicode="&#x2212;" horiz-adv-x="759" 
d="M681 321h-603v100h603v-100z" />
    <glyph glyph-name=".null" horiz-adv-x="0" 
 />
    <glyph glyph-name="nonmarkingreturn" horiz-adv-x="333" 
 />
    </font>
</defs>
</svg>
